<svg width="60" height="32" viewBox="0 0 60 32" fill="none" xmlns="http://www.w3.org/2000/svg">
<path d="M8.38965 8.35938V24H5.17773V8.35938H8.38965ZM13.2021 8.35938V10.8838H0.44043V8.35938H13.2021ZM12.4824 18.3066V18.0811C12.4824 17.2288 12.6042 16.4447 12.8477 15.7285C13.0911 15.0052 13.4456 14.3786 13.9111 13.8486C14.3766 13.3187 14.9495 12.9069 15.6299 12.6133C16.3102 12.3125 17.0908 12.1621 17.9717 12.1621C18.8525 12.1621 19.6367 12.3125 20.3242 12.6133C21.0117 12.9069 21.5882 13.3187 22.0537 13.8486C22.5264 14.3786 22.8844 15.0052 23.1279 15.7285C23.3714 16.4447 23.4932 17.2288 23.4932 18.0811V18.3066C23.4932 19.1517 23.3714 19.9359 23.1279 20.6592C22.8844 21.3753 22.5264 22.002 22.0537 22.5391C21.5882 23.069 21.0153 23.4808 20.335 23.7744C19.6546 24.068 18.874 24.2148 17.9932 24.2148C17.1123 24.2148 16.3281 24.068 15.6406 23.7744C14.9603 23.4808 14.3838 23.069 13.9111 22.5391C13.4456 22.002 13.0911 21.3753 12.8477 20.6592C12.6042 19.9359 12.4824 19.1517 12.4824 18.3066ZM15.5762 18.0811V18.3066C15.5762 18.7936 15.6191 19.2484 15.7051 19.6709C15.791 20.0934 15.9271 20.4658 16.1133 20.7881C16.3066 21.1032 16.5573 21.3503 16.8652 21.5293C17.1732 21.7083 17.5492 21.7979 17.9932 21.7979C18.4229 21.7979 18.7917 21.7083 19.0996 21.5293C19.4076 21.3503 19.6546 21.1032 19.8408 20.7881C20.027 20.4658 20.1631 20.0934 20.249 19.6709C20.3421 19.2484 20.3887 18.7936 20.3887 18.3066V18.0811C20.3887 17.6084 20.3421 17.1644 20.249 16.749C20.1631 16.3265 20.0234 15.9541 19.8301 15.6318C19.6439 15.3024 19.3968 15.0446 19.0889 14.8584C18.7809 14.6722 18.4085 14.5791 17.9717 14.5791C17.5348 14.5791 17.1624 14.6722 16.8545 14.8584C16.5537 15.0446 16.3066 15.3024 16.1133 15.6318C15.9271 15.9541 15.791 16.3265 15.7051 16.749C15.6191 17.1644 15.5762 17.6084 15.5762 18.0811ZM32.2588 21.4648V7.5H35.374V24H32.5703L32.2588 21.4648ZM24.9111 18.3281V18.1025C24.9111 17.2145 25.0114 16.4089 25.2119 15.6855C25.4124 14.9551 25.7061 14.3285 26.0928 13.8057C26.4795 13.2829 26.9557 12.8783 27.5215 12.5918C28.0872 12.3053 28.7318 12.1621 29.4551 12.1621C30.1354 12.1621 30.7298 12.3053 31.2383 12.5918C31.7539 12.8783 32.1908 13.2865 32.5488 13.8164C32.9141 14.3392 33.2077 14.9587 33.4297 15.6748C33.6517 16.3838 33.8128 17.1608 33.9131 18.0059V18.5C33.8128 19.3092 33.6517 20.0612 33.4297 20.7559C33.2077 21.4505 32.9141 22.0592 32.5488 22.582C32.1908 23.0977 31.7539 23.4987 31.2383 23.7852C30.7227 24.0716 30.1211 24.2148 29.4336 24.2148C28.7103 24.2148 28.0658 24.068 27.5 23.7744C26.9414 23.4808 26.4688 23.069 26.082 22.5391C25.7025 22.0091 25.4124 21.3861 25.2119 20.6699C25.0114 19.9538 24.9111 19.1732 24.9111 18.3281ZM28.0049 18.1025V18.3281C28.0049 18.8079 28.0407 19.2555 28.1123 19.6709C28.1911 20.0863 28.3164 20.4551 28.4883 20.7773C28.6673 21.0924 28.8965 21.3395 29.1758 21.5186C29.4622 21.6904 29.8096 21.7764 30.2178 21.7764C30.7477 21.7764 31.1846 21.6582 31.5283 21.4219C31.8721 21.1784 32.1335 20.8454 32.3125 20.4229C32.4987 20.0003 32.6061 19.5133 32.6348 18.9619V17.5547C32.6133 17.1035 32.5488 16.6989 32.4414 16.3408C32.3411 15.9756 32.1908 15.6641 31.9902 15.4062C31.7969 15.1484 31.5534 14.9479 31.2598 14.8047C30.9733 14.6615 30.6331 14.5898 30.2393 14.5898C29.8382 14.5898 29.4945 14.6829 29.208 14.8691C28.9215 15.0482 28.6888 15.2952 28.5098 15.6104C28.3379 15.9255 28.209 16.2979 28.123 16.7275C28.0443 17.1501 28.0049 17.6084 28.0049 18.1025ZM44.0645 21.3789V16.2012C44.0645 15.8288 44.0036 15.5101 43.8818 15.2451C43.7601 14.973 43.5703 14.7617 43.3125 14.6113C43.0618 14.4609 42.736 14.3857 42.335 14.3857C41.9912 14.3857 41.694 14.4466 41.4434 14.5684C41.1927 14.6829 40.9993 14.8512 40.8633 15.0732C40.7272 15.2881 40.6592 15.5423 40.6592 15.8359H37.5654C37.5654 15.3418 37.68 14.8727 37.9092 14.4287C38.1383 13.9847 38.4714 13.5944 38.9082 13.2578C39.3451 12.9141 39.8643 12.6455 40.4658 12.4521C41.0745 12.2588 41.7549 12.1621 42.5068 12.1621C43.4092 12.1621 44.2113 12.3125 44.9131 12.6133C45.6149 12.9141 46.1663 13.3652 46.5674 13.9668C46.9756 14.5684 47.1797 15.3203 47.1797 16.2227V21.1963C47.1797 21.8337 47.2191 22.3564 47.2979 22.7646C47.3766 23.1657 47.4912 23.5166 47.6416 23.8174V24H44.5156C44.3652 23.6849 44.2507 23.291 44.1719 22.8184C44.1003 22.3385 44.0645 21.8587 44.0645 21.3789ZM44.4727 16.9209L44.4941 18.6719H42.7646C42.3564 18.6719 42.002 18.7184 41.7012 18.8115C41.4004 18.9046 41.1533 19.0371 40.96 19.209C40.7666 19.3737 40.6234 19.5671 40.5303 19.7891C40.4443 20.0111 40.4014 20.2546 40.4014 20.5195C40.4014 20.7845 40.4622 21.0244 40.584 21.2393C40.7057 21.4469 40.8812 21.6117 41.1104 21.7334C41.3395 21.848 41.6081 21.9053 41.916 21.9053C42.3815 21.9053 42.7861 21.8122 43.1299 21.626C43.4736 21.4398 43.7386 21.2106 43.9248 20.9385C44.1182 20.6663 44.2184 20.4085 44.2256 20.165L45.042 21.4756C44.9274 21.7692 44.7699 22.0736 44.5693 22.3887C44.376 22.7038 44.1289 23.001 43.8281 23.2803C43.5273 23.5524 43.1657 23.778 42.7432 23.957C42.3206 24.1289 41.8193 24.2148 41.2393 24.2148C40.5016 24.2148 39.832 24.068 39.2305 23.7744C38.6361 23.4736 38.1634 23.0618 37.8125 22.5391C37.4688 22.0091 37.2969 21.4076 37.2969 20.7344C37.2969 20.1257 37.4115 19.585 37.6406 19.1123C37.8698 18.6396 38.2064 18.2422 38.6504 17.9199C39.1016 17.5905 39.6637 17.3434 40.3369 17.1787C41.0101 17.0068 41.7907 16.9209 42.6787 16.9209H44.4727ZM52.8408 22.6895L55.9238 12.377H59.2432L54.5703 25.751C54.4701 26.0446 54.334 26.3597 54.1621 26.6963C53.9974 27.0329 53.7718 27.3516 53.4854 27.6523C53.2061 27.9603 52.8516 28.2109 52.4219 28.4043C51.9993 28.5977 51.4801 28.6943 50.8643 28.6943C50.5706 28.6943 50.3307 28.6764 50.1445 28.6406C49.9583 28.6048 49.7363 28.5547 49.4785 28.4902V26.2236C49.5573 26.2236 49.6396 26.2236 49.7256 26.2236C49.8115 26.2308 49.8939 26.2344 49.9727 26.2344C50.3809 26.2344 50.7139 26.1878 50.9717 26.0947C51.2295 26.0016 51.4372 25.8584 51.5947 25.665C51.7523 25.4788 51.8776 25.2354 51.9707 24.9346L52.8408 22.6895ZM51.5518 12.377L54.0762 20.7988L54.5166 24.0752L52.4111 24.3008L48.2324 12.377H51.5518Z" fill="#0F0A39"/>
</svg>
