<svg width="24" height="24" viewBox="0 0 24 24" fill="none" xmlns="http://www.w3.org/2000/svg">
<g clip-path="url(#clip0_16_331)">
<path fill-rule="evenodd" clip-rule="evenodd" d="M5.828 6.21173C2.63123 9.62044 2.80304 14.9752 6.21174 18.172C9.62044 21.3688 14.9752 21.197 18.172 17.7883C21.3688 14.3796 21.197 9.02477 17.7883 5.828C14.3796 2.63122 9.02477 2.80303 5.828 6.21173ZM5.15933 19.2942C1.13086 15.5162 0.927819 9.18779 4.70582 5.15932C8.48382 1.13085 14.8122 0.927811 18.8407 4.70581C22.8692 8.48381 23.0722 14.8122 19.2942 18.8407C15.5162 22.8691 9.1878 23.0722 5.15933 19.2942Z" fill="#FF4555"/>
<path fill-rule="evenodd" clip-rule="evenodd" d="M8.33171 12.1177C8.31809 11.6931 8.65126 11.3378 9.07588 11.3242L11.2065 11.2558L11.1381 9.12521C11.1245 8.70059 11.4577 8.34533 11.8823 8.3317C12.3069 8.31808 12.6622 8.65126 12.6758 9.07587L12.7442 11.2065L14.8748 11.1381C15.2994 11.1245 15.6547 11.4577 15.6683 11.8823C15.6819 12.3069 15.3487 12.6622 14.9241 12.6758L12.7935 12.7442L12.8619 14.8748C12.8755 15.2994 12.5423 15.6547 12.1177 15.6683C11.6931 15.6819 11.3378 15.3487 11.3242 14.9241L11.2558 12.7935L9.12521 12.8619C8.7006 12.8755 8.34534 12.5423 8.33171 12.1177Z" fill="#FF4555"/>
</g>
<defs>
<clipPath id="clip0_16_331">
<rect width="24" height="24" fill="white"/>
</clipPath>
</defs>
</svg>
