<svg width="140" height="22" viewBox="0 0 140 22" fill="none" xmlns="http://www.w3.org/2000/svg">
<path d="M12.2459 21.4399L10.1902 18.6762C9.58107 18.798 8.9872 18.8589 8.40856 18.8589C6.90105 18.8589 5.51536 18.5087 4.25149 17.8082C3.00284 17.1077 2.00545 16.1332 1.25931 14.8845C0.528392 13.6207 0.162935 12.2045 0.162935 10.6361C0.162935 9.06769 0.528392 7.65915 1.25931 6.41051C2.00545 5.16186 3.00284 4.18731 4.25149 3.48685C5.51536 2.78639 6.90105 2.43616 8.40856 2.43616C9.91607 2.43616 11.2942 2.78639 12.5428 3.48685C13.8067 4.18731 14.7964 5.16186 15.5121 6.41051C16.243 7.65915 16.6085 9.06769 16.6085 10.6361C16.6085 12.0066 16.3268 13.2628 15.7634 14.4049C15.2152 15.5317 14.4462 16.4682 13.4564 17.2143L16.974 21.4399H12.2459ZM4.16012 10.6361C4.16012 12.0523 4.54081 13.1867 5.30218 14.0394C6.07877 14.8769 7.11423 15.2957 8.40856 15.2957C9.68766 15.2957 10.7079 14.8693 11.4693 14.0166C12.2459 13.1639 12.6342 12.037 12.6342 10.6361C12.6342 9.21996 12.2459 8.09313 11.4693 7.25563C10.7079 6.40289 9.68766 5.97653 8.40856 5.97653C7.11423 5.97653 6.07877 6.39528 5.30218 7.23279C4.54081 8.07029 4.16012 9.20473 4.16012 10.6361ZM31.4115 5.95369V18.699H27.5057V16.9631C27.1097 17.5265 26.5692 17.9833 25.8839 18.3335C25.2139 18.6686 24.4678 18.8361 23.6455 18.8361C22.671 18.8361 21.8106 18.6229 21.0645 18.1965C20.3183 17.7549 19.7397 17.123 19.3286 16.3007C18.9174 15.4784 18.7118 14.5115 18.7118 13.3999V5.95369H22.5948V12.8745C22.5948 13.7273 22.8156 14.3897 23.2572 14.8617C23.6988 15.3338 24.2927 15.5698 25.0388 15.5698C25.8002 15.5698 26.4017 15.3338 26.8433 14.8617C27.2849 14.3897 27.5057 13.7273 27.5057 12.8745V5.95369H31.4115ZM36.1813 4.6289C35.4961 4.6289 34.9327 4.43095 34.4911 4.03504C34.0647 3.6239 33.8516 3.12139 33.8516 2.52753C33.8516 1.91843 34.0647 1.41593 34.4911 1.02002C34.9327 0.608876 35.4961 0.403307 36.1813 0.403307C36.8513 0.403307 37.3995 0.608876 37.8259 1.02002C38.2675 1.41593 38.4883 1.91843 38.4883 2.52753C38.4883 3.12139 38.2675 3.6239 37.8259 4.03504C37.3995 4.43095 36.8513 4.6289 36.1813 4.6289ZM38.1228 5.95369V18.699H34.217V5.95369H38.1228ZM40.1767 12.3263C40.1767 11.0016 40.4432 9.84428 40.9762 8.8545C41.5244 7.86472 42.2781 7.10335 43.2374 6.5704C44.212 6.03744 45.3236 5.77096 46.5722 5.77096C48.1711 5.77096 49.5035 6.18971 50.5694 7.02722C51.6506 7.86472 52.3586 9.04485 52.6937 10.5676H48.5366C48.1863 9.59303 47.5087 9.10576 46.5037 9.10576C45.788 9.10576 45.217 9.38746 44.7906 9.95087C44.3643 10.4991 44.1511 11.2909 44.1511 12.3263C44.1511 13.3618 44.3643 14.1612 44.7906 14.7247C45.217 15.2728 45.788 15.5469 46.5037 15.5469C47.5087 15.5469 48.1863 15.0597 48.5366 14.0851H52.6937C52.3586 15.5774 51.6506 16.7499 50.5694 17.6026C49.4883 18.4554 48.1559 18.8817 46.5722 18.8817C45.3236 18.8817 44.212 18.6153 43.2374 18.0823C42.2781 17.5493 41.5244 16.788 40.9762 15.7982C40.4432 14.8084 40.1767 13.6511 40.1767 12.3263ZM62.5717 18.699L58.6887 13.3542V18.699H54.7829V1.79661H58.6887V11.1386L62.5489 5.95369H67.3683L62.0692 12.3492L67.414 18.699H62.5717ZM88.087 18.699H84.1811L77.6486 8.80882V18.699H73.7428V2.66457H77.6486L84.1811 12.6004V2.66457H88.087V18.699ZM96.7198 18.8817C95.4712 18.8817 94.3443 18.6153 93.3393 18.0823C92.3496 17.5493 91.5653 16.788 90.9867 15.7982C90.4233 14.8084 90.1416 13.6511 90.1416 12.3263C90.1416 11.0168 90.4309 9.86712 91.0095 8.87734C91.5882 7.87234 92.38 7.10335 93.385 6.5704C94.39 6.03744 95.5169 5.77096 96.7655 5.77096C98.0141 5.77096 99.141 6.03744 100.146 6.5704C101.151 7.10335 101.943 7.87234 102.521 8.87734C103.1 9.86712 103.389 11.0168 103.389 12.3263C103.389 13.6359 103.092 14.7932 102.499 15.7982C101.92 16.788 101.121 17.5493 100.1 18.0823C99.0953 18.6153 97.9685 18.8817 96.7198 18.8817ZM96.7198 15.5013C97.466 15.5013 98.0979 15.2272 98.6156 14.679C99.1486 14.1308 99.4151 13.3466 99.4151 12.3263C99.4151 11.3061 99.1562 10.5219 98.6385 9.97372C98.136 9.42553 97.5116 9.15144 96.7655 9.15144C96.0041 9.15144 95.3722 9.42553 94.8697 9.97372C94.3672 10.5067 94.1159 11.2909 94.1159 12.3263C94.1159 13.3466 94.3596 14.1308 94.8468 14.679C95.3494 15.2272 95.9737 15.5013 96.7198 15.5013ZM112.565 15.387V18.699H110.578C109.162 18.699 108.058 18.3564 107.266 17.6712C106.474 16.9707 106.078 15.8363 106.078 14.2678V9.19712H104.525V5.95369H106.078V2.8473H109.984V5.95369H112.542V9.19712H109.984V14.3135C109.984 14.6942 110.075 14.9683 110.258 15.1358C110.441 15.3033 110.745 15.387 111.172 15.387H112.565ZM126.755 12.1208C126.755 12.4862 126.732 12.8669 126.687 13.2628H117.847C117.908 14.0547 118.159 14.6637 118.601 15.0901C119.058 15.5013 119.613 15.7068 120.268 15.7068C121.243 15.7068 121.92 15.2957 122.301 14.4734H126.458C126.245 15.3109 125.857 16.0647 125.293 16.7347C124.745 17.4047 124.052 17.93 123.215 18.3107C122.377 18.6914 121.441 18.8817 120.405 18.8817C119.157 18.8817 118.045 18.6153 117.07 18.0823C116.096 17.5493 115.335 16.788 114.786 15.7982C114.238 14.8084 113.964 13.6511 113.964 12.3263C113.964 11.0016 114.231 9.84428 114.764 8.8545C115.312 7.86472 116.073 7.10335 117.048 6.5704C118.022 6.03744 119.141 5.77096 120.405 5.77096C121.639 5.77096 122.735 6.02982 123.694 6.54756C124.654 7.06529 125.4 7.80381 125.933 8.76314C126.481 9.72246 126.755 10.8417 126.755 12.1208ZM122.758 11.0929C122.758 10.4229 122.53 9.88997 122.073 9.49405C121.616 9.09814 121.045 8.90019 120.36 8.90019C119.705 8.90019 119.149 9.09053 118.692 9.47121C118.251 9.8519 117.977 10.3925 117.87 11.0929H122.758ZM134.001 18.8817C132.889 18.8817 131.899 18.6914 131.031 18.3107C130.163 17.93 129.478 17.4123 128.976 16.7575C128.473 16.0875 128.191 15.3414 128.13 14.5191H131.991C132.036 14.9607 132.242 15.3185 132.607 15.5926C132.973 15.8667 133.422 16.0038 133.955 16.0038C134.442 16.0038 134.815 15.9124 135.074 15.7297C135.348 15.5317 135.485 15.2805 135.485 14.9759C135.485 14.6105 135.295 14.344 134.914 14.1765C134.534 13.9937 133.917 13.7958 133.064 13.5826C132.15 13.3694 131.389 13.1486 130.78 12.9202C130.171 12.6766 129.646 12.3035 129.204 11.801C128.762 11.2833 128.542 10.5904 128.542 9.72246C128.542 8.99155 128.739 8.32916 129.135 7.73529C129.547 7.1262 130.14 6.64653 130.917 6.2963C131.709 5.94607 132.645 5.77096 133.726 5.77096C135.325 5.77096 136.582 6.16687 137.495 6.9587C138.424 7.75052 138.957 8.80121 139.094 10.1108H135.485C135.424 9.66917 135.226 9.31894 134.891 9.06007C134.572 8.80121 134.145 8.67178 133.612 8.67178C133.155 8.67178 132.805 8.76314 132.562 8.94587C132.318 9.11337 132.196 9.34939 132.196 9.65394C132.196 10.0194 132.386 10.2935 132.767 10.4762C133.163 10.6589 133.772 10.8417 134.594 11.0244C135.539 11.268 136.307 11.5117 136.901 11.7553C137.495 11.9837 138.013 12.3644 138.455 12.8974C138.911 13.4151 139.147 14.1156 139.163 14.9988C139.163 15.7449 138.949 16.4149 138.523 17.0088C138.112 17.5874 137.51 18.0442 136.719 18.3792C135.942 18.7142 135.036 18.8817 134.001 18.8817Z" fill="#323643"/>
</svg>
