<svg width="17" height="17" viewBox="0 0 17 17" fill="none" xmlns="http://www.w3.org/2000/svg">
<path fill-rule="evenodd" clip-rule="evenodd" d="M0 8.37333C0 3.75125 3.75125 0 8.37333 0C12.9954 0 16.7467 3.75125 16.7467 8.37333C16.7467 12.9954 12.9954 16.7467 8.37333 16.7467C3.75125 16.7467 0 12.9954 0 8.37333ZM4.22874 7.78122C3.90179 8.10823 3.90181 8.63836 4.22879 8.96534L5.41294 10.1495C6.39397 11.1305 7.98455 11.1305 8.96559 10.1495L12.518 6.59705C12.845 6.27005 12.845 5.73988 12.518 5.41288C12.191 5.08589 11.6608 5.08589 11.3339 5.41288L8.37343 8.37331C7.71943 9.0273 6.65909 9.0273 6.00509 8.37331L5.41296 7.78117C5.08594 7.45415 4.55573 7.45418 4.22874 7.78122Z" fill="#D4D4D4"/>
</svg>
