<svg width="120" height="18" viewBox="0 0 120 18" fill="none" xmlns="http://www.w3.org/2000/svg">
<path d="M13.3348 1.66101V4.78827H9.08905V17.6853H5.18569V4.78827H0.93993V1.66101H13.3348ZM21.0918 17.8679C19.8439 17.8679 18.7178 17.6016 17.7134 17.069C16.7243 16.5364 15.9406 15.7755 15.3623 14.7863C14.7992 13.7972 14.5177 12.6406 14.5177 11.3167C14.5177 10.008 14.8068 8.85902 15.3851 7.86987C15.9634 6.86549 16.7547 6.09699 17.7591 5.56437C18.7635 5.03175 19.8896 4.76544 21.1374 4.76544C22.3853 4.76544 23.5114 5.03175 24.5158 5.56437C25.5201 6.09699 26.3115 6.86549 26.8898 7.86987C27.468 8.85902 27.7572 10.008 27.7572 11.3167C27.7572 12.6254 27.4604 13.782 26.8669 14.7863C26.2886 15.7755 25.4897 16.5364 24.4701 17.069C23.4657 17.6016 22.3396 17.8679 21.0918 17.8679ZM21.0918 14.4896C21.8374 14.4896 22.469 14.2157 22.9864 13.6678C23.519 13.12 23.7853 12.3363 23.7853 11.3167C23.7853 10.2971 23.5266 9.51339 23.0092 8.96555C22.507 8.41771 21.8831 8.14379 21.1374 8.14379C20.3765 8.14379 19.745 8.41771 19.2428 8.96555C18.7406 9.49817 18.4895 10.2819 18.4895 11.3167C18.4895 12.3363 18.733 13.12 19.22 13.6678C19.7222 14.2157 20.3461 14.4896 21.0918 14.4896ZM33.8892 11.2939C33.8892 9.98514 34.1326 8.83619 34.6196 7.84704C35.1218 6.85788 35.799 6.09699 36.6512 5.56437C37.5034 5.03175 38.4545 4.76544 39.5045 4.76544C40.3415 4.76544 41.1024 4.94044 41.7872 5.29045C42.4872 5.64046 43.035 6.11221 43.4307 6.70571V0.793599H47.3341V17.6853H43.4307V15.8592C43.0655 16.4679 42.5405 16.9549 41.8557 17.3201C41.1861 17.6853 40.4024 17.8679 39.5045 17.8679C38.4545 17.8679 37.5034 17.6016 36.6512 17.069C35.799 16.5212 35.1218 15.7527 34.6196 14.7635C34.1326 13.7591 33.8892 12.6026 33.8892 11.2939ZM43.4307 11.3167C43.4307 10.3428 43.1568 9.57426 42.6089 9.0112C42.0763 8.44814 41.422 8.16661 40.6458 8.16661C39.8697 8.16661 39.2078 8.44814 38.6599 9.0112C38.1273 9.55904 37.861 10.3199 37.861 11.2939C37.861 12.2678 38.1273 13.0439 38.6599 13.6222C39.2078 14.1852 39.8697 14.4668 40.6458 14.4668C41.422 14.4668 42.0763 14.1852 42.6089 13.6222C43.1568 13.0591 43.4307 12.2906 43.4307 11.3167ZM55.9559 17.8679C54.7081 17.8679 53.582 17.6016 52.5776 17.069C51.5884 16.5364 50.8047 15.7755 50.2265 14.7863C49.6634 13.7972 49.3819 12.6406 49.3819 11.3167C49.3819 10.008 49.671 8.85902 50.2493 7.86987C50.8276 6.86549 51.6189 6.09699 52.6233 5.56437C53.6276 5.03175 54.7537 4.76544 56.0016 4.76544C57.2495 4.76544 58.3756 5.03175 59.3799 5.56437C60.3843 6.09699 61.1756 6.86549 61.7539 7.86987C62.3322 8.85902 62.6213 10.008 62.6213 11.3167C62.6213 12.6254 62.3246 13.782 61.7311 14.7863C61.1528 15.7755 60.3539 16.5364 59.3343 17.069C58.3299 17.6016 57.2038 17.8679 55.9559 17.8679ZM55.9559 14.4896C56.7016 14.4896 57.3332 14.2157 57.8506 13.6678C58.3832 13.12 58.6495 12.3363 58.6495 11.3167C58.6495 10.2971 58.3908 9.51339 57.8734 8.96555C57.3712 8.41771 56.7473 8.14379 56.0016 8.14379C55.2407 8.14379 54.6092 8.41771 54.107 8.96555C53.6048 9.49817 53.3537 10.2819 53.3537 11.3167C53.3537 12.3363 53.5972 13.12 54.0842 13.6678C54.5863 14.2157 55.2103 14.4896 55.9559 14.4896ZM76.6285 14.3755V17.6853H74.6426C73.2273 17.6853 72.1241 17.3429 71.3327 16.6581C70.5414 15.9581 70.1457 14.8244 70.1457 13.257V8.18944H68.5935V4.94805H70.1457V1.84363H74.0491V4.94805H76.6057V8.18944H74.0491V13.3026C74.0491 13.6831 74.1404 13.957 74.323 14.1244C74.5056 14.2918 74.81 14.3755 75.2361 14.3755H76.6285ZM78.0267 11.2939C78.0267 9.98514 78.2701 8.83619 78.7571 7.84704C79.2593 6.85788 79.9365 6.09699 80.7887 5.56437C81.6409 5.03175 82.592 4.76544 83.642 4.76544C84.5399 4.76544 85.3236 4.94805 85.9932 5.31328C86.678 5.67851 87.203 6.15787 87.5682 6.75136V4.94805H91.4716V17.6853H87.5682V15.882C87.1878 16.4755 86.6551 16.9549 85.9703 17.3201C85.3008 17.6853 84.517 17.8679 83.6192 17.8679C82.5844 17.8679 81.6409 17.6016 80.7887 17.069C79.9365 16.5212 79.2593 15.7527 78.7571 14.7635C78.2701 13.7591 78.0267 12.6026 78.0267 11.2939ZM87.5682 11.3167C87.5682 10.3428 87.2943 9.57426 86.7464 9.0112C86.2138 8.44814 85.5595 8.16661 84.7834 8.16661C84.0072 8.16661 83.3453 8.44814 82.7974 9.0112C82.2648 9.55904 81.9985 10.3199 81.9985 11.2939C81.9985 12.2678 82.2648 13.0439 82.7974 13.6222C83.3453 14.1852 84.0072 14.4668 84.7834 14.4668C85.5595 14.4668 86.2138 14.1852 86.7464 13.6222C87.2943 13.0591 87.5682 12.2906 87.5682 11.3167ZM99.4771 17.8679C98.3662 17.8679 97.3771 17.6777 96.5097 17.2973C95.6422 16.9168 94.9574 16.3994 94.4553 15.7451C93.9531 15.0755 93.6715 14.3298 93.6107 13.5081H97.4684C97.514 13.9494 97.7195 14.307 98.0847 14.5809C98.4499 14.8548 98.8988 14.9918 99.4315 14.9918C99.9184 14.9918 100.291 14.9005 100.55 14.7179C100.824 14.52 100.961 14.2689 100.961 13.9646C100.961 13.5994 100.771 13.333 100.39 13.1657C100.01 12.983 99.3934 12.7852 98.5412 12.5722C97.6282 12.3591 96.8673 12.1385 96.2586 11.9102C95.6499 11.6667 95.1248 11.2939 94.6835 10.7917C94.2422 10.2743 94.0216 9.58187 94.0216 8.71445C94.0216 7.984 94.2194 7.32203 94.615 6.72853C95.0259 6.11982 95.6194 5.64046 96.3955 5.29045C97.1869 4.94044 98.1227 4.76544 99.2032 4.76544C100.801 4.76544 102.057 5.1611 102.97 5.95243C103.898 6.74375 104.431 7.79378 104.567 9.10251H100.961C100.9 8.66119 100.702 8.31118 100.367 8.05248C100.048 7.79378 99.6217 7.66443 99.0891 7.66443C98.6325 7.66443 98.2825 7.75573 98.039 7.93835C97.7956 8.10574 97.6738 8.34162 97.6738 8.64597C97.6738 9.0112 97.864 9.28512 98.2445 9.46773C98.6401 9.65035 99.2489 9.83296 100.071 10.0156C101.014 10.2591 101.783 10.5025 102.376 10.746C102.97 10.9743 103.487 11.3547 103.928 11.8874C104.385 12.4048 104.621 13.1048 104.636 13.9874C104.636 14.7331 104.423 15.4027 103.997 15.9962C103.586 16.5744 102.985 17.031 102.193 17.3658C101.417 17.7006 100.512 17.8679 99.4771 17.8679ZM114.808 17.6853L110.927 12.3439V17.6853H107.024V0.793599H110.927V10.1297L114.785 4.94805H119.602L114.306 11.3395L119.647 17.6853H114.808Z" fill="#323643"/>
</svg>
