<svg width="123" height="46" viewBox="0 0 123 46" fill="none" xmlns="http://www.w3.org/2000/svg">
<rect width="122.123" height="45.6533" rx="11.4133" fill="#34CE71"/>
<path d="M69.6184 16.364V29.3466H67.3803L61.5578 20.0466V29.3466H59.3197V16.364H61.5578L67.3982 25.6819V16.364H69.6184ZM71.6603 24.6297V24.4246C71.6603 23.7291 71.7614 23.0842 71.9635 22.4897C72.1656 21.8893 72.4569 21.3692 72.8373 20.9293C73.2237 20.4835 73.6933 20.1387 74.2462 19.895C74.8049 19.6453 75.4351 19.5205 76.1365 19.5205C76.8439 19.5205 77.474 19.6453 78.0268 19.895C78.5856 20.1387 79.0582 20.4835 79.4446 20.9293C79.831 21.3692 80.1252 21.8893 80.3273 22.4897C80.5294 23.0842 80.6305 23.7291 80.6305 24.4246V24.6297C80.6305 25.3252 80.5294 25.9702 80.3273 26.5646C80.1252 27.1591 79.831 27.6792 79.4446 28.1251C79.0582 28.565 78.5886 28.9097 78.0357 29.1594C77.4829 29.4031 76.8558 29.525 76.1543 29.525C75.4469 29.525 74.8139 29.4031 74.2551 29.1594C73.7022 28.9097 73.2326 28.565 72.8462 28.1251C72.4599 27.6792 72.1656 27.1591 71.9635 26.5646C71.7614 25.9702 71.6603 25.3252 71.6603 24.6297ZM73.8092 24.4246V24.6297C73.8092 25.0637 73.8538 25.4738 73.943 25.8602C74.0322 26.2466 74.1719 26.5855 74.3621 26.8767C74.5523 27.168 74.796 27.3969 75.0932 27.5633C75.3905 27.7298 75.7442 27.813 76.1543 27.813C76.5526 27.813 76.8974 27.7298 77.1887 27.5633C77.4859 27.3969 77.7296 27.168 77.9198 26.8767C78.1101 26.5855 78.2497 26.2466 78.3389 25.8602C78.434 25.4738 78.4816 25.0637 78.4816 24.6297V24.4246C78.4816 23.9966 78.434 23.5924 78.3389 23.212C78.2497 22.8256 78.1071 22.4838 77.9109 22.1866C77.7207 21.8893 77.477 21.6575 77.1797 21.4911C76.8885 21.3187 76.5407 21.2325 76.1365 21.2325C75.7323 21.2325 75.3816 21.3187 75.0843 21.4911C74.7931 21.6575 74.5523 21.8893 74.3621 22.1866C74.1719 22.4838 74.0322 22.8256 73.943 23.212C73.8538 23.5924 73.8092 23.9966 73.8092 24.4246ZM86.8543 19.6988V21.2681H81.4152V19.6988H86.8543ZM82.9845 17.3359H85.1334V26.6806C85.1334 26.9778 85.175 27.2066 85.2583 27.3671C85.3474 27.5217 85.4693 27.6257 85.6238 27.6792C85.7784 27.7327 85.9597 27.7595 86.1678 27.7595C86.3164 27.7595 86.459 27.7506 86.5958 27.7327C86.7325 27.7149 86.8424 27.6971 86.9257 27.6792L86.9346 29.3199C86.7563 29.3734 86.5482 29.421 86.3104 29.4626C86.0786 29.5042 85.8111 29.525 85.5079 29.525C85.0145 29.525 84.5776 29.4388 84.1972 29.2664C83.8167 29.0881 83.5195 28.7998 83.3055 28.4015C83.0915 28.0032 82.9845 27.4741 82.9845 26.8143V17.3359ZM92.7661 29.525C92.0528 29.525 91.4078 29.4091 90.8312 29.1772C90.2605 28.9395 89.7731 28.6095 89.3688 28.1875C88.9706 27.7654 88.6644 27.2691 88.4504 26.6984C88.2364 26.1277 88.1294 25.5125 88.1294 24.8526V24.496C88.1294 23.741 88.2394 23.0574 88.4593 22.4451C88.6793 21.8329 88.9854 21.3098 89.3778 20.8758C89.7701 20.4359 90.2338 20.1001 90.7688 19.8682C91.3038 19.6364 91.8833 19.5205 92.5075 19.5205C93.1971 19.5205 93.8004 19.6364 94.3176 19.8682C94.8348 20.1001 95.2628 20.427 95.6016 20.8491C95.9464 21.2652 96.202 21.7615 96.3684 22.3381C96.5408 22.9148 96.627 23.5508 96.627 24.2463V25.1647H89.1727V23.6221H94.5048V23.4527C94.4929 23.0663 94.4157 22.7037 94.273 22.3649C94.1363 22.0261 93.9253 21.7526 93.6399 21.5446C93.3546 21.3365 92.9741 21.2325 92.4986 21.2325C92.1419 21.2325 91.8239 21.3098 91.5445 21.4643C91.2711 21.6129 91.0422 21.8299 90.8579 22.1152C90.6736 22.4006 90.531 22.7453 90.4299 23.1496C90.3348 23.5478 90.2873 23.9966 90.2873 24.496V24.8526C90.2873 25.2747 90.3437 25.667 90.4567 26.0296C90.5756 26.3863 90.7479 26.6984 90.9738 26.9659C91.1997 27.2334 91.4732 27.4444 91.7942 27.599C92.1152 27.7476 92.4808 27.8219 92.8909 27.8219C93.4081 27.8219 93.8688 27.7179 94.273 27.5098C94.6772 27.3018 95.0279 27.0075 95.3252 26.6271L96.4576 27.7238C96.2495 28.027 95.9791 28.3183 95.6462 28.5976C95.3133 28.8711 94.9061 29.094 94.4246 29.2664C93.949 29.4388 93.3962 29.525 92.7661 29.525Z" fill="white"/>
<path fill-rule="evenodd" clip-rule="evenodd" d="M24.0183 12.8468V10.9085H23.4763C21.783 10.822 20.1109 11.312 18.754 12.2931L18.7365 12.3015C18.6107 12.4012 18.4911 12.5081 18.3777 12.621L18.359 12.6318C18.0513 12.9379 17.7771 13.2766 17.5429 13.6393C17.5055 13.7018 17.4594 13.7595 17.4183 13.8339C17.3772 13.9083 17.3261 13.9937 17.28 14.0824C17.2339 14.169 17.1791 14.277 17.133 14.3827C17.1055 14.4439 17.0694 14.516 17.042 14.594C16.9859 14.7298 16.9311 14.8607 16.885 15.0011C16.8676 15.054 16.8489 15.0984 16.8302 15.1513C16.8115 15.2041 16.8015 15.2329 16.7841 15.2713H16.794C16.599 15.9009 16.4687 16.5462 16.4044 17.1987H14.9987C14.4427 17.2025 13.9963 17.6573 14 18.2143C14.0038 18.7712 14.4578 19.2197 15.0138 19.2147H16.3119V27.8139L24.0183 28V19.2147C24.0183 16.5 24.0183 16.5 24.0183 12.8468ZM24.0183 28L15.0197 27.7827C14.4614 27.7827 14.01 28.2343 14.01 28.7913C14.01 29.3483 14.4614 29.7987 15.0197 29.7987H16.4107C16.4744 30.4463 16.6054 31.0869 16.7991 31.7107H16.7916C16.8103 31.7551 16.819 31.7936 16.8377 31.8308C16.8501 31.8824 16.8688 31.9328 16.8925 31.9809C16.9386 32.1226 16.9934 32.2643 17.0495 32.3976C17.0769 32.4685 17.1131 32.5393 17.1405 32.6102C17.1866 32.7074 17.2414 32.8131 17.2875 32.9104L17.4258 33.1506C17.4619 33.2214 17.508 33.2839 17.5504 33.3547C17.7834 33.7162 18.0563 34.0513 18.3665 34.3539L18.3852 34.3719C18.5098 34.4788 18.6244 34.5845 18.7441 34.6818L18.7615 34.6998C20.1171 35.6821 21.788 36.1745 23.4813 36.0892H24.0183V36.0987H34.8743C39.6082 36.0987 42 33.4549 42 28.2274V18.7819C42 13.5424 39.6082 10.8987 34.8743 10.8987H24.0183V34.1497C24.0183 31.8308 24.0183 29.5 24.0183 28Z" fill="white"/>
<path d="M34.7824 18.7424L34.0493 18.0062C33.3772 17.3313 32.3386 17.3313 31.6665 18.0062L30.4446 19.2946L33.5605 22.4237L34.8435 21.1352C35.149 20.8285 35.3323 20.399 35.3323 19.9695C35.3323 19.54 35.0879 19.0492 34.7824 18.7424Z" fill="#34CE71"/>
<path d="M32.2164 22.3623L29.7726 19.9081L24.946 24.7551C24.6406 25.0619 24.4573 25.4914 24.4573 25.9822V27.8842C24.4573 28.1296 24.6406 28.375 24.946 28.375H26.9011C27.3288 28.375 27.7564 28.1909 28.123 27.8842L32.9495 23.0372L32.2164 22.3623Z" fill="#34CE71"/>
</svg>
