<svg width="28" height="27" viewBox="0 0 28 27" fill="none" xmlns="http://www.w3.org/2000/svg">
<path fill-rule="evenodd" clip-rule="evenodd" d="M10.0183 2.84679V0.908495H9.47629C7.78299 0.821976 6.11087 1.31197 4.75399 2.29309L4.73655 2.30149C4.6107 2.40117 4.49109 2.50813 4.3777 2.62097L4.35901 2.63175C4.05125 2.93793 3.77713 3.2766 3.54289 3.63934C3.50551 3.70178 3.45942 3.75945 3.4183 3.83393C3.37718 3.90828 3.32609 3.99367 3.27999 4.08243C3.23389 4.16895 3.17906 4.27703 3.13296 4.38273C3.10555 4.44391 3.06942 4.51601 3.04201 4.59399C2.98594 4.72979 2.93111 4.86069 2.88501 5.00111C2.86756 5.05403 2.84887 5.09841 2.83018 5.15133C2.81149 5.20411 2.80153 5.23295 2.78408 5.27131H2.79405C2.59897 5.90089 2.46869 6.54615 2.40437 7.19869H0.998669C0.442748 7.20247 -0.00374948 7.65733 2.37395e-05 8.21425C0.00379695 8.77118 0.457841 9.21973 1.01376 9.21469H2.31187L2.31187 17.8139L10.0183 18L10.0183 9.21469C10.0183 6.5 10.0183 6.5 10.0183 2.84679ZM10.0183 18L1.01973 17.7827C0.461398 17.7827 0.00995187 18.2343 0.00995187 18.7913C0.00995187 19.3483 0.461398 19.7987 1.01973 19.7987H2.41066C2.47443 20.4463 2.60539 21.0869 2.79906 21.7107H2.79159C2.81028 21.7551 2.819 21.7936 2.83769 21.8308C2.85015 21.8824 2.86884 21.9328 2.89251 21.9809C2.93861 22.1226 2.99344 22.2643 3.04951 22.3976C3.07692 22.4685 3.11305 22.5393 3.14046 22.6102C3.18657 22.7074 3.24139 22.8131 3.2875 22.9104L3.4258 23.1506C3.46193 23.2214 3.50804 23.2839 3.5504 23.3547C3.78339 23.7162 4.05626 24.0513 4.36652 24.3539L4.3852 24.3719C4.5098 24.4788 4.62444 24.5845 4.74405 24.6818L4.7615 24.6998C6.11713 25.6821 7.788 26.1745 9.48131 26.0892H10.0183V26.0987H20.8743C25.6082 26.0987 28 23.4549 28 18.2274V8.78195C28 3.54245 25.6082 0.898689 20.8743 0.898689H10.0183L10.0183 24.1497C10.0183 21.8308 10.0183 19.5 10.0183 18Z" fill="white"/>
<path d="M20.7824 8.74242L20.0493 8.00617C19.3772 7.33128 18.3386 7.33128 17.6665 8.00617L16.4446 9.2946L19.5605 12.4237L20.8435 11.1352C21.149 10.8285 21.3323 10.399 21.3323 9.9695C21.3323 9.54002 21.0879 9.04919 20.7824 8.74242Z" fill="#34CE71"/>
<path d="M18.2164 12.3623L15.7726 9.90814L10.946 14.7551C10.6406 15.0619 10.4573 15.4914 10.4573 15.9822V17.8842C10.4573 18.1296 10.6406 18.375 10.946 18.375H12.9011C13.3288 18.375 13.7564 18.1909 14.123 17.8842L18.9495 13.0372L18.2164 12.3623Z" fill="#34CE71"/>
</svg>
