<svg width="43" height="45" viewBox="0 0 43 45" fill="none" xmlns="http://www.w3.org/2000/svg">
<rect x="1" y="2" width="40" height="41" rx="10.08" fill="#FF4555"/>
<path d="M12.4285 28.1099C13.221 28.1099 13.9811 28.4202 14.5415 28.9725C15.1018 29.5248 15.4167 30.2739 15.4167 31.055C15.4167 31.836 15.1018 32.5851 14.5415 33.1374C13.9811 33.6897 13.221 34 12.4285 34C11.636 34 10.876 33.6897 10.3156 33.1374C9.7552 32.5851 9.44038 31.836 9.44038 31.055C9.44038 30.2739 9.7552 29.5248 10.3156 28.9725C10.876 28.4202 11.636 28.1099 12.4285 28.1099ZM31.1001 30.0065C31.597 30.0065 32 30.4777 32 31.0583C32 31.6389 31.597 32.1101 31.1001 32.1101H19.3439C18.8471 32.1101 18.4441 31.6389 18.4441 31.0583C18.4441 30.4777 18.8471 30.0065 19.3439 30.0065H31.1001ZM12.4285 19.6955C12.8209 19.6955 13.2095 19.7717 13.572 19.9197C13.9346 20.0677 14.264 20.2846 14.5415 20.5581C14.8189 20.8316 15.039 21.1562 15.1892 21.5135C15.3394 21.8709 15.4167 22.2538 15.4167 22.6406C15.4167 23.0273 15.3394 23.4103 15.1892 23.7676C15.039 24.1249 14.8189 24.4495 14.5415 24.723C14.264 24.9965 13.9346 25.2134 13.572 25.3614C13.2095 25.5094 12.8209 25.5856 12.4285 25.5856C11.636 25.5856 10.876 25.2753 10.3156 24.723C9.7552 24.1707 9.44038 23.4216 9.44038 22.6406C9.44038 21.8595 9.7552 21.1104 10.3156 20.5581C10.876 20.0058 11.636 19.6955 12.4285 19.6955ZM31.1001 21.5854C31.597 21.5854 32 22.0566 32 22.6372C32 23.2178 31.597 23.689 31.1001 23.689H19.3439C18.8471 23.689 18.4441 23.2178 18.4441 22.6372C18.4441 22.0566 18.8471 21.5854 19.3439 21.5854H31.1001ZM16.4036 11.3198C16.6117 11.5341 16.7279 11.8192 16.7279 12.1158C16.7279 12.4124 16.6117 12.6976 16.4036 12.9118L12.7905 16.5671C12.692 16.6681 12.5738 16.7486 12.443 16.8036C12.3122 16.8586 12.1715 16.8871 12.0293 16.8872C11.8871 16.8874 11.7463 16.8593 11.6154 16.8045C11.4845 16.7498 11.3661 16.6696 11.2674 16.5687L9.32427 14.6015C9.11616 14.3872 9 14.102 9 13.8054C9 13.5088 9.11616 13.2237 9.32427 13.0094C9.4225 12.9078 9.54066 12.8269 9.67156 12.7716C9.80247 12.7164 9.9434 12.6878 10.0858 12.6878C10.2282 12.6878 10.3692 12.7164 10.5001 12.7716C10.631 12.8269 10.7491 12.9078 10.8474 13.0094L12.0324 14.211L14.8822 11.3198C14.9804 11.2187 15.0983 11.1383 15.2289 11.0833C15.3595 11.0283 15.5001 11 15.6421 11C15.7841 11 15.9246 11.0283 16.0552 11.0833C16.1858 11.1383 16.3037 11.2187 16.4019 11.3198H16.4036ZM31.1001 13.1693C31.597 13.1693 32 13.6405 32 14.2211C32 14.8017 31.597 15.2729 31.1001 15.2729H19.3439C18.8471 15.2729 18.4441 14.8017 18.4441 14.2211C18.4441 13.6405 18.8471 13.1693 19.3439 13.1693H31.1001Z" fill="white"/>
</svg>
