<svg width="29" height="27" viewBox="0 0 29 27" fill="none" xmlns="http://www.w3.org/2000/svg">
<path fill-rule="evenodd" clip-rule="evenodd" d="M10.061 2.84679V0.908495H9.51895C7.82565 0.821975 6.15354 1.31197 4.79666 2.29309L4.77921 2.30149C4.65337 2.40117 4.53375 2.50813 4.42036 2.62097L4.40168 2.63175C4.09392 2.93793 3.81979 3.2766 3.58556 3.63934C3.54818 3.70178 3.50208 3.75945 3.46096 3.83393C3.41984 3.90827 3.36875 3.99367 3.32265 4.08243C3.27655 4.16895 3.22173 4.27703 3.17562 4.38273C3.14821 4.44391 3.11208 4.51601 3.08467 4.59399C3.0286 4.72979 2.97377 4.86069 2.92767 5.00111C2.91023 5.05403 2.89154 5.09841 2.87285 5.15133C2.85416 5.20411 2.84419 5.23295 2.82675 5.27131H2.83671C2.64164 5.90089 2.51135 6.54615 2.44704 7.19869H1.04133C0.485412 7.20247 0.0389141 7.65733 0.0426873 8.21425C0.0464605 8.77117 0.500504 9.21973 1.05642 9.21469H2.35454L2.35454 17.8139L10.061 18L10.061 9.21469C10.061 6.5 10.061 6.5 10.061 2.84679ZM10.061 18L1.06239 17.7827C0.504062 17.7827 0.0526154 18.2343 0.0526154 18.7913C0.0526154 19.3483 0.504062 19.7987 1.06239 19.7987H2.45332C2.51709 20.4463 2.64805 21.0869 2.84173 21.7107H2.83425C2.85294 21.7551 2.86166 21.7936 2.88035 21.8308C2.89281 21.8824 2.9115 21.9329 2.93518 21.9809C2.98128 22.1226 3.0361 22.2643 3.09217 22.3976C3.11958 22.4685 3.15572 22.5393 3.18313 22.6102C3.22923 22.7074 3.28406 22.8131 3.33016 22.9104L3.46846 23.1506C3.5046 23.2214 3.5507 23.2839 3.59307 23.3547C3.82605 23.7162 4.09893 24.0513 4.40918 24.3539L4.42787 24.3719C4.55247 24.4788 4.6671 24.5845 4.78672 24.6818L4.80416 24.6998C6.15979 25.6821 7.83067 26.1745 9.52397 26.0892H10.061V26.0987H20.9169C25.6509 26.0987 28.0427 23.4549 28.0427 18.2274V8.78195C28.0427 3.54245 25.6509 0.898689 20.9169 0.898689H10.061L10.061 24.1497C10.061 21.8308 10.061 19.5 10.061 18Z" fill="#CBC9D9"/>
<path d="M20.8251 8.74242L20.092 8.00617C19.4199 7.33128 18.3813 7.33128 17.7093 8.00617L16.4874 9.2946L19.6032 12.4237L20.8862 11.1352C21.1917 10.8285 21.375 10.399 21.375 9.9695C21.375 9.54002 21.1306 9.04919 20.8251 8.74242Z" fill="white"/>
<path d="M18.2591 12.3623L15.8153 9.90814L10.9888 14.7551C10.6833 15.0619 10.5 15.4914 10.5 15.9822V17.8842C10.5 18.1296 10.6833 18.375 10.9888 18.375H12.9438C13.3715 18.375 13.7992 18.1909 14.1657 17.8842L18.9923 13.0372L18.2591 12.3623Z" fill="white"/>
</svg>
