<svg width="77" height="17" viewBox="0 0 77 17" fill="none" xmlns="http://www.w3.org/2000/svg">
<path d="M4.71061 3.78827V7.02965H9.93792V10.0428H4.71061V13.5581H10.6227V16.6853H0.807252V0.661012H10.6227V3.78827H4.71061ZM18.8863 13.0331L21.6484 3.94805H25.8028L21.2831 16.6853H16.4667L11.947 3.94805H16.1243L18.8863 13.0331ZM39.4526 10.1113C39.4526 10.4765 39.4298 10.8569 39.3841 11.2526H30.5502C30.6111 12.0439 30.8622 12.6526 31.3035 13.0787C31.76 13.4896 32.3155 13.695 32.9698 13.695C33.9438 13.695 34.621 13.2842 35.0014 12.4624H39.1559C38.9428 13.2994 38.5548 14.0527 37.9917 14.7222C37.4439 15.3918 36.7515 15.9168 35.9145 16.2973C35.0775 16.6777 34.1416 16.8679 33.1068 16.8679C31.8589 16.8679 30.7481 16.6016 29.7741 16.069C28.8002 15.5364 28.0393 14.7755 27.4914 13.7863C26.9436 12.7972 26.6697 11.6406 26.6697 10.3167C26.6697 8.99275 26.936 7.83619 27.4686 6.84704C28.0165 5.85788 28.7773 5.09699 29.7513 4.56437C30.7252 4.03175 31.8437 3.76544 33.1068 3.76544C34.3394 3.76544 35.4351 4.02414 36.3938 4.54155C37.3526 5.05895 38.0982 5.79701 38.6309 6.75573C39.1787 7.71445 39.4526 8.83296 39.4526 10.1113ZM35.458 9.08405C35.458 8.41447 35.2297 7.88185 34.7732 7.48619C34.3166 7.09052 33.746 6.89269 33.0612 6.89269C32.4068 6.89269 31.8513 7.08291 31.3948 7.46336C30.9535 7.8438 30.6796 8.38403 30.573 9.08405H35.458ZM49.2729 3.81109C50.7642 3.81109 51.9512 4.29806 52.8339 5.272C53.7317 6.23072 54.1806 7.55467 54.1806 9.24384V16.6853H50.3001V9.76885C50.3001 8.91666 50.0794 8.25468 49.6381 7.78293C49.1968 7.31118 48.6033 7.07531 47.8577 7.07531C47.112 7.07531 46.5185 7.31118 46.0772 7.78293C45.6359 8.25468 45.4152 8.91666 45.4152 9.76885V16.6853H41.5118V3.94805H45.4152V5.63723C45.8109 5.07417 46.3435 4.63285 47.0131 4.31328C47.6826 3.97849 48.4359 3.81109 49.2729 3.81109ZM63.9922 13.3755V16.6853H62.0063C60.591 16.6853 59.4877 16.3429 58.6964 15.6581C57.9051 14.9581 57.5094 13.8244 57.5094 12.257V7.18944H55.9572V3.94805H57.5094V0.843626H61.4128V3.94805H63.9694V7.18944H61.4128V12.3026C61.4128 12.6831 61.5041 12.957 61.6867 13.1244C61.8693 13.2918 62.1737 13.3755 62.5998 13.3755H63.9922ZM71.3481 16.8679C70.2372 16.8679 69.248 16.6777 68.3806 16.2973C67.5132 15.9168 66.8284 15.3994 66.3262 14.7451C65.824 14.0755 65.5425 13.3298 65.4816 12.5081H69.3393C69.385 12.9494 69.5904 13.307 69.9556 13.5809C70.3209 13.8548 70.7698 13.9918 71.3024 13.9918C71.7894 13.9918 72.1622 13.9005 72.4209 13.7179C72.6948 13.52 72.8318 13.2689 72.8318 12.9646C72.8318 12.5994 72.6416 12.333 72.2611 12.1657C71.8807 11.983 71.2644 11.7852 70.4122 11.5722C69.4991 11.3591 68.7382 11.1385 68.1295 10.9102C67.5208 10.6667 66.9958 10.2939 66.5545 9.79168C66.1132 9.27427 65.8925 8.58187 65.8925 7.71445C65.8925 6.984 66.0903 6.32203 66.486 5.72853C66.8969 5.11982 67.4904 4.64046 68.2665 4.29045C69.0578 3.94044 69.9937 3.76544 71.0742 3.76544C72.672 3.76544 73.9275 4.1611 74.8406 4.95243C75.7688 5.74375 76.3015 6.79378 76.4384 8.10251H72.8318C72.7709 7.66119 72.5731 7.31118 72.2383 7.05248C71.9187 6.79378 71.4926 6.66443 70.96 6.66443C70.5035 6.66443 70.1535 6.75573 69.91 6.93835C69.6665 7.10574 69.5448 7.34162 69.5448 7.64597C69.5448 8.0112 69.735 8.28512 70.1154 8.46773C70.5111 8.65035 71.1198 8.83296 71.9416 9.01557C72.8851 9.25906 73.6536 9.50254 74.2471 9.74603C74.8406 9.97429 75.358 10.3547 75.7993 10.8874C76.2558 11.4048 76.4917 12.1048 76.5069 12.9874C76.5069 13.7331 76.2939 14.4027 75.8678 14.9962C75.4569 15.5744 74.8558 16.031 74.0644 16.3658C73.2883 16.7006 72.3829 16.8679 71.3481 16.8679Z" fill="#323643"/>
</svg>
