<svg width="43" height="43" viewBox="0 0 43 43" fill="none" xmlns="http://www.w3.org/2000/svg">
<path fill-rule="evenodd" clip-rule="evenodd" d="M15.3852 4.99174V2.01507H14.5529C11.9524 1.8822 9.38455 2.63469 7.30077 4.14141L7.27399 4.15431C7.08072 4.30739 6.89702 4.47166 6.7229 4.64494L6.6942 4.6615C6.22156 5.1317 5.80059 5.65179 5.44087 6.20886C5.38347 6.30475 5.31267 6.39333 5.24953 6.50771C5.18638 6.62187 5.10792 6.75302 5.03712 6.88933C4.96632 7.0222 4.88213 7.18818 4.81133 7.3505C4.76924 7.44446 4.71375 7.55519 4.67165 7.67494C4.58554 7.88349 4.50135 8.0845 4.43055 8.30015C4.40376 8.38142 4.37505 8.44957 4.34635 8.53084C4.31765 8.6119 4.30234 8.65619 4.27555 8.7151H4.29086C3.99128 9.68196 3.7912 10.6729 3.69243 11.675H1.53367C0.679935 11.6808 -0.00575813 12.3794 3.64571e-05 13.2346C0.00583104 14.0899 0.703113 14.7788 1.55685 14.771H3.55038L3.55038 27.9769L15.3852 28.2627L15.3852 14.771C15.3852 10.602 15.3852 10.602 15.3852 4.99174ZM15.3852 28.2627L1.56601 27.929C0.708576 27.929 0.0152832 28.6226 0.0152832 29.478C0.0152832 30.3334 0.708576 31.025 1.56601 31.025H3.70208C3.80001 32.0196 4.00113 33.0033 4.29856 33.9613H4.28708C4.31578 34.0295 4.32917 34.0886 4.35787 34.1457C4.37701 34.225 4.40572 34.3025 4.44207 34.3762C4.51287 34.5939 4.59707 34.8115 4.68317 35.0162C4.72527 35.125 4.78076 35.2338 4.82286 35.3426C4.89366 35.492 4.97785 35.6543 5.04865 35.8037L5.26105 36.1726C5.31654 36.2814 5.38734 36.3773 5.4524 36.4861C5.81021 37.0412 6.22926 37.5558 6.70572 38.0205L6.73442 38.0482C6.92577 38.2123 7.10181 38.3746 7.28551 38.524L7.3123 38.5517C9.39416 40.0603 11.9601 40.8164 14.5606 40.6855H15.3852V40.7H32.0569C39.3269 40.7 43 36.6399 43 28.612V14.1064C43 6.06006 39.3269 2.00001 32.0569 2.00001H15.3852L15.3852 37.707C15.3852 34.1457 15.3852 30.5663 15.3852 28.2627Z" fill="#34CE71"/>
<path d="M31.9159 14.0457L30.79 12.9151C29.758 11.8786 28.1629 11.8786 27.1309 12.9151L25.2544 14.8937L30.0394 19.6991L32.0098 17.7204C32.4789 17.2493 32.7604 16.5897 32.7604 15.9302C32.7604 15.2706 32.3851 14.5169 31.9159 14.0457Z" fill="white"/>
<path d="M27.9753 19.6048L24.2223 15.836L16.8101 23.2795C16.341 23.7506 16.0595 24.4102 16.0595 25.164V28.0848C16.0595 28.4617 16.341 28.8386 16.8101 28.8386H19.8125C20.4693 28.8386 21.1261 28.556 21.689 28.0848L29.1012 20.6413L27.9753 19.6048Z" fill="white"/>
</svg>
