<svg width="34" height="34" viewBox="0 0 34 34" fill="none" xmlns="http://www.w3.org/2000/svg">
<path d="M18.453 9.35C18.453 12.1667 16.1761 14.45 13.3675 14.45C10.5589 14.45 8.28205 12.1667 8.28205 9.35C8.28205 6.53335 10.5589 4.25 13.3675 4.25C16.1761 4.25 18.453 6.53335 18.453 9.35Z" fill="#0F0A39"/>
<path fill-rule="evenodd" clip-rule="evenodd" d="M2.83333 9.35C2.83333 8.74643 3.32122 8.25714 3.92307 8.25714H8.28205C8.88389 8.25714 9.37179 8.74643 9.37179 9.35C9.37179 9.95357 8.88389 10.4429 8.28205 10.4429H3.92307C3.32122 10.4429 2.83333 9.95357 2.83333 9.35Z" fill="#0F0A39"/>
<path fill-rule="evenodd" clip-rule="evenodd" d="M20.2692 9.35C20.2692 8.74643 20.7571 8.25714 21.359 8.25714L30.0769 8.25714C30.6788 8.25714 31.1667 8.74643 31.1667 9.35C31.1667 9.95357 30.6788 10.4429 30.0769 10.4429L21.359 10.4429C20.7571 10.4429 20.2692 9.95357 20.2692 9.35Z" fill="#0F0A39"/>
<path d="M15.547 24.65C15.547 27.4667 17.8238 29.75 20.6325 29.75C23.4411 29.75 25.7179 27.4667 25.7179 24.65C25.7179 21.8333 23.4411 19.55 20.6325 19.55C17.8238 19.55 15.547 21.8333 15.547 24.65Z" fill="#0F0A39"/>
<path fill-rule="evenodd" clip-rule="evenodd" d="M31.1667 24.65C31.1667 24.0464 30.6788 23.5571 30.0769 23.5571H25.7179C25.1161 23.5571 24.6282 24.0464 24.6282 24.65C24.6282 25.2536 25.1161 25.7429 25.7179 25.7429H30.0769C30.6788 25.7429 31.1667 25.2536 31.1667 24.65Z" fill="#0F0A39"/>
<path fill-rule="evenodd" clip-rule="evenodd" d="M13.7308 24.65C13.7308 24.0464 13.2429 23.5571 12.641 23.5571L3.92307 23.5571C3.32122 23.5571 2.83333 24.0464 2.83333 24.65C2.83333 25.2536 3.32122 25.7429 3.92307 25.7429L12.641 25.7429C13.2429 25.7429 13.7308 25.2536 13.7308 24.65Z" fill="#0F0A39"/>
</svg>
