<svg width="43" height="43" viewBox="0 0 43 43" fill="none" xmlns="http://www.w3.org/2000/svg">
<path fill-rule="evenodd" clip-rule="evenodd" d="M31.025 8.31719V6.73845C32.0377 6.83659 33.0299 7.09203 33.9681 7.49595C35.1799 7.99346 36.1831 8.91001 36.8102 10.0906C37.4632 11.4702 37.7711 12.9972 37.7083 14.5318V15.3852H40.6849V14.5529C40.8178 11.9524 40.0653 9.38455 38.5586 7.30077L38.5457 7.27399C38.3926 7.08072 38.2284 6.89702 38.0551 6.7229L38.0385 6.6942C37.5683 6.22156 37.0482 5.80059 36.4912 5.44087C36.3953 5.38347 36.3067 5.31267 36.1923 5.24953C36.0781 5.18638 35.947 5.10792 35.8107 5.03712C35.6778 4.96632 35.5118 4.88213 35.3495 4.81133C35.2556 4.76924 35.1448 4.71375 35.0251 4.67165C34.8165 4.58554 34.6155 4.50135 34.3999 4.43055C34.3186 4.40376 34.2504 4.37505 34.1692 4.34635C34.0881 4.31765 34.0438 4.30234 33.9849 4.27555V4.29086C33.0181 3.99128 32.0271 3.7912 31.025 3.69243V1.53367C31.0192 0.679935 30.3207 -0.00575813 29.4654 3.64571e-05C28.6101 0.00583104 27.9213 0.703113 27.929 1.55685V3.55038H14.7861V6.62533H27.929V8.31719C27.929 9.17093 28.6217 9.86241 29.477 9.86241C30.3323 9.86241 31.025 9.17093 31.025 8.31719ZM14.771 8.32505V1.56601C14.771 0.708576 14.0774 0.0152832 13.222 0.0152832C12.3666 0.0152832 11.675 0.708576 11.675 1.56601V3.70208C10.6804 3.80002 9.69669 4.00113 8.73873 4.29856V4.28708C8.67049 4.31578 8.61146 4.32917 8.55429 4.35787C8.475 4.37701 8.39755 4.40572 8.32378 4.44207C8.10616 4.51287 7.88853 4.59707 7.68381 4.68317C7.575 4.72527 7.46618 4.78076 7.35737 4.82286C7.20799 4.89366 7.04569 4.97785 6.89631 5.04865L6.52745 5.26105C6.41864 5.31654 6.32275 5.38734 6.21393 5.4524C5.6588 5.8102 5.14426 6.22926 4.6795 6.70572L4.65186 6.73442C4.4877 6.92577 4.32542 7.10181 4.17602 7.28551L4.14836 7.3123C2.63976 9.39416 1.88361 11.9601 2.01455 14.5606V15.3852H2V32.0569C2 39.3269 6.06009 43 14.088 43H28.5936C36.64 43 40.7 39.3269 40.7 32.0569V15.3852H4.99304V14.5529C4.99304 10.9288 6.14755 8.67277 8.7166 7.51704C9.66235 7.1168 10.6595 6.86411 11.675 6.76244V8.32505C11.675 9.18247 12.3666 9.8777 13.222 9.8777C14.0774 9.8777 14.771 9.18247 14.771 8.32505ZM12.5009 26.4807C11.5228 26.4807 10.7292 25.6622 10.7292 24.6536C10.7292 23.6448 11.5228 22.8076 12.5009 22.8076H12.5193C13.479 22.8076 14.2725 23.6259 14.2725 24.6345C14.291 25.6433 13.4974 26.4807 12.5009 26.4807ZM19.5691 24.6536C19.5691 25.6622 20.3811 26.4807 21.3592 26.4807C22.3373 26.4807 23.1309 25.6622 23.1309 24.6345C23.1309 23.6448 22.3373 22.8265 21.3592 22.8076H21.3408C20.3627 22.8265 19.5691 23.6448 19.5691 24.6536ZM30.1992 26.4807C29.2209 26.4807 28.4274 25.6622 28.4274 24.6536C28.4274 23.6451 29.2027 22.8265 30.1992 22.8265C31.1772 22.8265 31.9708 23.6451 31.9708 24.6536C31.9708 25.6622 31.1772 26.4807 30.1992 26.4807ZM12.5009 34.2835C11.5227 34.2835 10.7292 33.4652 10.7292 32.4566C10.7107 31.4478 11.5043 30.6104 12.5009 30.6104C13.479 30.6104 14.2725 31.4289 14.2725 32.4375C14.2725 33.4463 13.479 34.2835 12.5009 34.2835ZM21.3592 34.2835C20.3811 34.2835 19.5691 33.4652 19.5691 32.4566C19.5691 31.4478 20.3627 30.6296 21.3408 30.6104H21.3592C22.3373 30.6296 23.1125 31.4478 23.1309 32.4375C23.1309 33.4652 22.3373 34.2835 21.3592 34.2835ZM30.1992 34.2835C29.2209 34.2835 28.4274 33.4652 28.4091 32.4566C28.4091 31.4478 29.2027 30.6295 30.1807 30.6295H30.1992C31.1772 30.6295 31.9708 31.4478 31.9708 32.4566C31.9708 33.4652 31.1772 34.2835 30.1992 34.2835Z" fill="#566FFF"/>
</svg>
