<svg width="28" height="28" viewBox="0 0 28 28" fill="none" xmlns="http://www.w3.org/2000/svg">
<path fill-rule="evenodd" clip-rule="evenodd" d="M25.0594 2.7246C24.8519 2.51709 24.5406 2.41333 24.1256 2.41333C23.7105 2.51709 12.6085 4.38472 8.04313 8.95006C4.82664 12.1665 4.61913 15.6943 5.13792 18.1845L8.97695 15.9018C9.49573 15.5905 10.0145 16.3168 9.59949 16.7319L5.76046 20.5709L2.85525 23.4761C2.44022 23.8911 2.44022 24.5137 2.85525 24.9287C3.06276 25.1362 3.27028 25.24 3.58155 25.24C3.89282 25.24 4.10034 25.1362 4.30785 24.9287L7.21307 22.0235C8.04313 22.4385 9.59949 22.9573 11.5709 22.9573C13.8536 22.9573 15.9287 22.231 17.7963 20.7784C18.1076 20.5709 18.3151 20.0521 18.1076 19.6371L16.655 14.4492L20.3903 15.9018C20.9091 16.1093 21.5316 15.9018 21.7391 15.383C23.918 10.5064 25.2669 3.96969 25.3706 3.76218C25.3706 3.34715 25.2669 2.93212 25.0594 2.7246Z" fill="#CBC9D9"/>
</svg>
