<svg width="46" height="46" viewBox="0 0 46 46" fill="none" xmlns="http://www.w3.org/2000/svg">
<path fill-rule="evenodd" clip-rule="evenodd" d="M28.9427 13.9145V12.8865C29.6021 12.9504 30.2482 13.1168 30.8592 13.3798C31.6482 13.7037 32.3015 14.3006 32.7099 15.0693C33.135 15.9677 33.3355 16.962 33.2946 17.9613V18.517H35.2329V17.975C35.3194 16.2817 34.8294 14.6096 33.8483 13.2527L33.8399 13.2352C33.7402 13.1094 33.6333 12.9898 33.5204 12.8764L33.5097 12.8577C33.2035 12.5499 32.8648 12.2758 32.5021 12.0416C32.4396 12.0042 32.382 11.9581 32.3075 11.917C32.2331 11.8759 32.1477 11.8248 32.059 11.7787C31.9725 11.7326 31.8644 11.6778 31.7587 11.6316C31.6975 11.6042 31.6254 11.5681 31.5474 11.5407C31.4116 11.4846 31.2807 11.4298 31.1403 11.3837C31.0874 11.3663 31.043 11.3476 30.9901 11.3289C30.9373 11.3102 30.9085 11.3002 30.8701 11.2828V11.2927C30.2405 11.0977 29.5953 10.9674 28.9427 10.9031V9.49736C28.9389 8.94144 28.4841 8.49494 27.9272 8.49871C27.3702 8.50248 26.9217 8.95653 26.9267 9.51245V10.8106H18.3685V12.8129H26.9267V13.9145C26.9267 14.4705 27.3778 14.9207 27.9347 14.9207C28.4916 14.9207 28.9427 14.4705 28.9427 13.9145ZM18.3587 13.9197V9.51841C18.3587 8.96009 17.9071 8.50864 17.3501 8.50864C16.7931 8.50864 16.3427 8.96009 16.3427 9.51841V10.9093C15.6951 10.9731 15.0545 11.1041 14.4307 11.2978V11.2903C14.3863 11.309 14.3479 11.3177 14.3106 11.3364C14.259 11.3488 14.2086 11.3675 14.1605 11.3912C14.0188 11.4373 13.8771 11.4921 13.7438 11.5482C13.673 11.5756 13.6021 11.6117 13.5312 11.6392C13.434 11.6853 13.3283 11.7401 13.231 11.7862L12.9908 11.9245C12.92 11.9606 12.8575 12.0067 12.7867 12.0491C12.4252 12.2821 12.0902 12.555 11.7875 12.8652L11.7695 12.8839C11.6626 13.0085 11.557 13.1231 11.4597 13.2427L11.4417 13.2602C10.4593 14.6158 9.96693 16.2867 10.0522 17.98V18.517H10.0427V29.373C10.0427 34.1069 12.6865 36.4987 17.914 36.4987H27.3595C32.599 36.4987 35.2427 34.1069 35.2427 29.373V18.517H11.9917V17.975C11.9917 15.6151 12.7435 14.1461 14.4163 13.3935C15.0322 13.1329 15.6815 12.9683 16.3427 12.9021V13.9197C16.3427 14.478 16.7931 14.9307 17.3501 14.9307C17.9071 14.9307 18.3587 14.478 18.3587 13.9197ZM16.8805 25.7419C16.2436 25.7419 15.7269 25.2089 15.7269 24.5522C15.7269 23.8953 16.2436 23.3502 16.8805 23.3502H16.8925C17.5174 23.3502 18.0342 23.883 18.0342 24.5397C18.0462 25.1966 17.5294 25.7419 16.8805 25.7419ZM21.4831 24.5522C21.4831 25.2089 22.0118 25.7419 22.6487 25.7419C23.2856 25.7419 23.8024 25.2089 23.8024 24.5397C23.8024 23.8953 23.2856 23.3625 22.6487 23.3502H22.6367C21.9998 23.3625 21.4831 23.8953 21.4831 24.5522ZM28.405 25.7419C27.768 25.7419 27.2513 25.2089 27.2513 24.5522C27.2513 23.8955 27.7561 23.3625 28.405 23.3625C29.0418 23.3625 29.5586 23.8955 29.5586 24.5522C29.5586 25.2089 29.0418 25.7419 28.405 25.7419ZM16.8805 30.8228C16.2436 30.8228 15.7268 30.29 15.7268 29.6332C15.7148 28.9763 16.2316 28.4311 16.8805 28.4311C17.5174 28.4311 18.0341 28.964 18.0341 29.6208C18.0341 30.2777 17.5174 30.8228 16.8805 30.8228ZM22.6487 30.8228C22.0118 30.8228 21.4831 30.29 21.4831 29.6332C21.4831 28.9763 21.9998 28.4435 22.6367 28.4311H22.6487C23.2856 28.4435 23.7904 28.9764 23.8024 29.6208C23.8024 30.29 23.2856 30.8228 22.6487 30.8228ZM28.405 30.8228C27.768 30.8228 27.2513 30.29 27.2394 29.6332C27.2394 28.9763 27.7561 28.4435 28.3929 28.4435H28.405C29.0418 28.4435 29.5586 28.9763 29.5586 29.6332C29.5586 30.29 29.0418 30.8228 28.405 30.8228Z" fill="#CBC9D9"/>
<rect x="10.0427" y="10.4987" width="25" height="26" rx="6" fill="#CBC9D9"/>
<path d="M17.236 27.1586C17.7528 27.1586 18.2485 27.361 18.614 27.7212C18.9795 28.0814 19.1848 28.5699 19.1848 29.0793C19.1848 29.5887 18.9795 30.0772 18.614 30.4374C18.2485 30.7976 17.7528 31 17.236 31C16.7191 31 16.2235 30.7976 15.858 30.4374C15.4925 30.0772 15.2872 29.5887 15.2872 29.0793C15.2872 28.5699 15.4925 28.0814 15.858 27.7212C16.2235 27.361 16.7191 27.1586 17.236 27.1586V27.1586ZM29.4131 28.3956C29.7372 28.3956 30 28.7029 30 29.0815C30 29.4602 29.7372 29.7675 29.4131 29.7675H21.746C21.422 29.7675 21.1592 29.4602 21.1592 29.0815C21.1592 28.7029 21.422 28.3956 21.746 28.3956H29.4131V28.3956ZM17.236 21.671C17.4919 21.671 17.7453 21.7207 17.9818 21.8172C18.2182 21.9137 18.433 22.0552 18.614 22.2335C18.795 22.4119 18.9385 22.6236 19.0364 22.8567C19.1344 23.0897 19.1848 23.3394 19.1848 23.5917C19.1848 23.8439 19.1344 24.0937 19.0364 24.3267C18.9385 24.5597 18.795 24.7714 18.614 24.9498C18.433 25.1281 18.2182 25.2696 17.9818 25.3661C17.7453 25.4627 17.4919 25.5124 17.236 25.5124C16.7191 25.5124 16.2235 25.31 15.858 24.9498C15.4925 24.5896 15.2872 24.1011 15.2872 23.5917C15.2872 23.0823 15.4925 22.5937 15.858 22.2335C16.2235 21.8734 16.7191 21.671 17.236 21.671V21.671ZM29.4131 22.9035C29.7372 22.9035 30 23.2108 30 23.5895C30 23.9681 29.7372 24.2754 29.4131 24.2754H21.746C21.422 24.2754 21.1592 23.9681 21.1592 23.5895C21.1592 23.2108 21.422 22.9035 21.746 22.9035H29.4131V22.9035ZM19.8284 16.2086C19.9642 16.3483 20.0399 16.5343 20.0399 16.7277C20.0399 16.9212 19.9642 17.1071 19.8284 17.2469L17.4721 19.6307C17.4078 19.6966 17.3308 19.7491 17.2455 19.785C17.1602 19.8209 17.0684 19.8394 16.9756 19.8395C16.8829 19.8396 16.7911 19.8213 16.7057 19.7856C16.6203 19.7499 16.5431 19.6976 16.4787 19.6318L15.2115 18.3488C15.0758 18.209 15 18.0231 15 17.8296C15 17.6362 15.0758 17.4502 15.2115 17.3105C15.2755 17.2442 15.3526 17.1915 15.438 17.1554C15.5233 17.1194 15.6153 17.1008 15.7081 17.1008C15.801 17.1008 15.8929 17.1194 15.9783 17.1554C16.0637 17.1915 16.1407 17.2442 16.2048 17.3105L16.9776 18.0941L18.8362 16.2086C18.9003 16.1427 18.9772 16.0902 19.0623 16.0543C19.1475 16.0185 19.2392 16 19.3318 16C19.4244 16 19.516 16.0185 19.6012 16.0543C19.6864 16.0902 19.7633 16.1427 19.8273 16.2086H19.8284ZM29.4131 17.4148C29.7372 17.4148 30 17.7221 30 18.1007C30 18.4794 29.7372 18.7867 29.4131 18.7867H21.746C21.422 18.7867 21.1592 18.4794 21.1592 18.1007C21.1592 17.7221 21.422 17.4148 21.746 17.4148H29.4131V17.4148Z" fill="white"/>
</svg>
