<svg width="45" height="46" viewBox="0 0 45 46" fill="none" xmlns="http://www.w3.org/2000/svg">
<rect x="12" y="9.49869" width="25" height="26" rx="6" fill="white"/>
<path d="M19.1933 26.1586C19.7101 26.1586 20.2058 26.361 20.5713 26.7212C20.9367 27.0814 21.1421 27.5699 21.1421 28.0793C21.1421 28.5887 20.9367 29.0772 20.5713 29.4374C20.2058 29.7976 19.7101 30 19.1933 30C18.6764 30 18.1807 29.7976 17.8153 29.4374C17.4498 29.0772 17.2445 28.5887 17.2445 28.0793C17.2445 27.5699 17.4498 27.0814 17.8153 26.7212C18.1807 26.361 18.6764 26.1586 19.1933 26.1586ZM31.3704 27.3956C31.6945 27.3956 31.9573 27.7029 31.9573 28.0815C31.9573 28.4602 31.6945 28.7675 31.3704 28.7675H23.7033C23.3793 28.7675 23.1165 28.4602 23.1165 28.0815C23.1165 27.7029 23.3793 27.3956 23.7033 27.3956H31.3704ZM19.1933 20.671C19.4492 20.671 19.7026 20.7207 19.939 20.8172C20.1755 20.9137 20.3903 21.0552 20.5713 21.2335C20.7522 21.4119 20.8958 21.6236 20.9937 21.8567C21.0916 22.0897 21.1421 22.3394 21.1421 22.5917C21.1421 22.8439 21.0916 23.0937 20.9937 23.3267C20.8958 23.5597 20.7522 23.7714 20.5713 23.9498C20.3903 24.1281 20.1755 24.2696 19.939 24.3661C19.7026 24.4627 19.4492 24.5124 19.1933 24.5124C18.6764 24.5124 18.1807 24.31 17.8153 23.9498C17.4498 23.5896 17.2445 23.1011 17.2445 22.5917C17.2445 22.0823 17.4498 21.5937 17.8153 21.2335C18.1807 20.8734 18.6764 20.671 19.1933 20.671ZM31.3704 21.9035C31.6945 21.9035 31.9573 22.2108 31.9573 22.5895C31.9573 22.9681 31.6945 23.2754 31.3704 23.2754H23.7033C23.3793 23.2754 23.1165 22.9681 23.1165 22.5895C23.1165 22.2108 23.3793 21.9035 23.7033 21.9035H31.3704ZM21.7857 15.2086C21.9214 15.3483 21.9972 15.5343 21.9972 15.7277C21.9972 15.9212 21.9214 16.1071 21.7857 16.2469L19.4294 18.6307C19.3651 18.6966 19.288 18.7491 19.2027 18.785C19.1174 18.8209 19.0257 18.8394 18.9329 18.8395C18.8402 18.8396 18.7484 18.8213 18.663 18.7856C18.5776 18.7499 18.5004 18.6976 18.436 18.6318L17.1688 17.3488C17.033 17.209 16.9573 17.0231 16.9573 16.8296C16.9573 16.6362 17.033 16.4502 17.1688 16.3105C17.2328 16.2442 17.3099 16.1915 17.3953 16.1554C17.4806 16.1194 17.5725 16.1008 17.6654 16.1008C17.7583 16.1008 17.8502 16.1194 17.9356 16.1554C18.021 16.1915 18.098 16.2442 18.1621 16.3105L18.9349 17.0941L20.7935 15.2086C20.8575 15.1427 20.9345 15.0902 21.0196 15.0543C21.1048 15.0185 21.1964 15 21.2891 15C21.3817 15 21.4733 15.0185 21.5585 15.0543C21.6436 15.0902 21.7206 15.1427 21.7846 15.2086H21.7857ZM31.3704 16.4148C31.6945 16.4148 31.9573 16.7221 31.9573 17.1007C31.9573 17.4794 31.6945 17.7867 31.3704 17.7867H23.7033C23.3793 17.7867 23.1165 17.4794 23.1165 17.1007C23.1165 16.7221 23.3793 16.4148 23.7033 16.4148H31.3704Z" fill="#FF4555"/>
</svg>
