<svg width="123" height="46" viewBox="0 0 123 46" fill="none" xmlns="http://www.w3.org/2000/svg">
<path d="M0 11.4133C0 5.10993 5.10992 0 11.4133 0H110.709C117.013 0 122.123 5.10992 122.123 11.4133V34.24C122.123 40.5434 117.013 45.6533 110.709 45.6533H11.4133C5.10993 45.6533 0 40.5434 0 34.24V11.4133Z" fill="#FF4555"/>
<path d="M64.6608 16.364V29.3466H62.4405V16.364H64.6608ZM68.7357 16.364V18.1473H58.4013V16.364H68.7357ZM68.5752 24.6297V24.4246C68.5752 23.7291 68.6762 23.0842 68.8783 22.4897C69.0804 21.8893 69.3717 21.3692 69.7522 20.9293C70.1386 20.4835 70.6082 20.1387 71.161 19.895C71.7198 19.6453 72.3499 19.5205 73.0513 19.5205C73.7587 19.5205 74.3888 19.6453 74.9417 19.895C75.5004 20.1387 75.973 20.4835 76.3594 20.9293C76.7458 21.3692 77.0401 21.8893 77.2422 22.4897C77.4443 23.0842 77.5453 23.7291 77.5453 24.4246V24.6297C77.5453 25.3252 77.4443 25.9702 77.2422 26.5646C77.0401 27.1591 76.7458 27.6792 76.3594 28.1251C75.973 28.565 75.5034 28.9097 74.9506 29.1594C74.3977 29.4031 73.7706 29.525 73.0692 29.525C72.3618 29.525 71.7287 29.4031 71.1699 29.1594C70.6171 28.9097 70.1475 28.565 69.7611 28.1251C69.3747 27.6792 69.0804 27.1591 68.8783 26.5646C68.6762 25.9702 68.5752 25.3252 68.5752 24.6297ZM70.7241 24.4246V24.6297C70.7241 25.0637 70.7687 25.4738 70.8578 25.8602C70.947 26.2466 71.0867 26.5855 71.2769 26.8767C71.4671 27.168 71.7109 27.3969 72.0081 27.5633C72.3053 27.7298 72.659 27.813 73.0692 27.813C73.4674 27.813 73.8122 27.7298 74.1035 27.5633C74.4007 27.3969 74.6444 27.168 74.8347 26.8767C75.0249 26.5855 75.1646 26.2466 75.2537 25.8602C75.3489 25.4738 75.3964 25.0637 75.3964 24.6297V24.4246C75.3964 23.9966 75.3489 23.5924 75.2537 23.212C75.1646 22.8256 75.0219 22.4838 74.8257 22.1866C74.6355 21.8893 74.3918 21.6575 74.0946 21.4911C73.8033 21.3187 73.4556 21.2325 73.0513 21.2325C72.6471 21.2325 72.2964 21.3187 71.9992 21.4911C71.7079 21.6575 71.4671 21.8893 71.2769 22.1866C71.0867 22.4838 70.947 22.8256 70.8578 23.212C70.7687 23.5924 70.7241 23.9966 70.7241 24.4246ZM89.779 27.3493V15.6506H91.9368V29.3466H89.9841L89.779 27.3493ZM83.5017 24.6297V24.4425C83.5017 23.7113 83.5879 23.0455 83.7603 22.4451C83.9326 21.8388 84.1823 21.3187 84.5093 20.8847C84.8362 20.4448 85.2345 20.109 85.7041 19.8771C86.1737 19.6394 86.7028 19.5205 87.2913 19.5205C87.8738 19.5205 88.385 19.6334 88.8249 19.8593C89.2648 20.0852 89.6393 20.4092 89.9484 20.8312C90.2575 21.2473 90.5042 21.7467 90.6885 22.3292C90.8728 22.9058 91.0036 23.5478 91.0808 24.2552V24.8526C91.0036 25.5422 90.8728 26.1723 90.6885 26.743C90.5042 27.3136 90.2575 27.807 89.9484 28.2231C89.6393 28.6393 89.2618 28.9603 88.816 29.1861C88.3761 29.412 87.8619 29.525 87.2734 29.525C86.6909 29.525 86.1648 29.4031 85.6952 29.1594C85.2315 28.9157 84.8362 28.5739 84.5093 28.134C84.1823 27.6941 83.9326 27.1769 83.7603 26.5825C83.5879 25.9821 83.5017 25.3312 83.5017 24.6297ZM85.6506 24.4425V24.6297C85.6506 25.0696 85.6892 25.4798 85.7665 25.8602C85.8497 26.2407 85.9775 26.5765 86.1499 26.8678C86.3223 27.1531 86.5452 27.379 86.8187 27.5455C87.0981 27.706 87.4309 27.7862 87.8173 27.7862C88.3048 27.7862 88.706 27.6792 89.0211 27.4652C89.3361 27.2512 89.5828 26.9629 89.7612 26.6003C89.9454 26.2318 90.0703 25.8216 90.1357 25.3698V23.7559C90.1 23.4052 90.0257 23.0782 89.9128 22.7751C89.8058 22.4719 89.6601 22.2074 89.4758 21.9815C89.2916 21.7496 89.0627 21.5713 88.7893 21.4465C88.5218 21.3157 88.2037 21.2503 87.8352 21.2503C87.4428 21.2503 87.1099 21.3335 86.8365 21.5C86.5631 21.6664 86.3372 21.8953 86.1588 22.1866C85.9864 22.4778 85.8586 22.8167 85.7754 23.2031C85.6922 23.5895 85.6506 24.0026 85.6506 24.4425ZM93.7737 24.6297V24.4246C93.7737 23.7291 93.8747 23.0842 94.0768 22.4897C94.2789 21.8893 94.5702 21.3692 94.9507 20.9293C95.3371 20.4835 95.8067 20.1387 96.3595 19.895C96.9183 19.6453 97.5484 19.5205 98.2498 19.5205C98.9572 19.5205 99.5873 19.6453 100.14 19.895C100.699 20.1387 101.172 20.4835 101.558 20.9293C101.944 21.3692 102.239 21.8893 102.441 22.4897C102.643 23.0842 102.744 23.7291 102.744 24.4246V24.6297C102.744 25.3252 102.643 25.9702 102.441 26.5646C102.239 27.1591 101.944 27.6792 101.558 28.1251C101.172 28.565 100.702 28.9097 100.149 29.1594C99.5963 29.4031 98.9691 29.525 98.2677 29.525C97.5603 29.525 96.9272 29.4031 96.3684 29.1594C95.8156 28.9097 95.346 28.565 94.9596 28.1251C94.5732 27.6792 94.2789 27.1591 94.0768 26.5646C93.8747 25.9702 93.7737 25.3252 93.7737 24.6297ZM95.9226 24.4246V24.6297C95.9226 25.0637 95.9672 25.4738 96.0563 25.8602C96.1455 26.2466 96.2852 26.5855 96.4754 26.8767C96.6656 27.168 96.9094 27.3969 97.2066 27.5633C97.5038 27.7298 97.8575 27.813 98.2677 27.813C98.6659 27.813 99.0107 27.7298 99.302 27.5633C99.5992 27.3969 99.8429 27.168 100.033 26.8767C100.223 26.5855 100.363 26.2466 100.452 25.8602C100.547 25.4738 100.595 25.0637 100.595 24.6297V24.4246C100.595 23.9966 100.547 23.5924 100.452 23.212C100.363 22.8256 100.22 22.4838 100.024 22.1866C99.834 21.8893 99.5903 21.6575 99.2931 21.4911C99.0018 21.3187 98.6541 21.2325 98.2498 21.2325C97.8456 21.2325 97.4949 21.3187 97.1977 21.4911C96.9064 21.6575 96.6656 21.8893 96.4754 22.1866C96.2852 22.4838 96.1455 22.8256 96.0563 23.212C95.9672 23.5924 95.9226 23.9966 95.9226 24.4246Z" fill="white"/>
<path fill-rule="evenodd" clip-rule="evenodd" d="M36.9 13.9145V12.8865C37.5594 12.9504 38.2055 13.1168 38.8165 13.3798C39.6055 13.7037 40.2587 14.3006 40.6671 15.0693C41.0923 15.9677 41.2928 16.962 41.2519 17.9613V18.517H43.1902V17.975C43.2767 16.2817 42.7867 14.6096 41.8056 13.2527L41.7972 13.2352C41.6975 13.1094 41.5906 12.9898 41.4777 12.8764L41.4669 12.8577C41.1608 12.5499 40.8221 12.2758 40.4594 12.0416C40.3969 12.0042 40.3392 11.9581 40.2648 11.917C40.1904 11.8759 40.105 11.8248 40.0163 11.7787C39.9297 11.7326 39.8217 11.6778 39.716 11.6316C39.6548 11.6042 39.5827 11.5681 39.5047 11.5407C39.3689 11.4846 39.238 11.4298 39.0976 11.3837C39.0447 11.3663 39.0003 11.3476 38.9474 11.3289C38.8946 11.3102 38.8657 11.3002 38.8274 11.2828V11.2927C38.1978 11.0977 37.5525 10.9674 36.9 10.9031V9.49736C36.8962 8.94144 36.4414 8.49494 35.8844 8.49871C35.3275 8.50248 34.879 8.95653 34.884 9.51245V10.8106H26.3258V12.8129H34.884V13.9145C34.884 14.4705 35.3351 14.9207 35.892 14.9207C36.4489 14.9207 36.9 14.4705 36.9 13.9145ZM26.316 13.9197V9.51841C26.316 8.96009 25.8644 8.50864 25.3074 8.50864C24.7504 8.50864 24.3 8.96009 24.3 9.51841V10.9093C23.6524 10.9731 23.0118 11.1041 22.388 11.2978V11.2903C22.3436 11.309 22.3051 11.3177 22.2679 11.3364C22.2163 11.3488 22.1658 11.3675 22.1178 11.3912C21.9761 11.4373 21.8344 11.4921 21.7011 11.5482C21.6302 11.5756 21.5594 11.6117 21.4885 11.6392C21.3912 11.6853 21.2856 11.7401 21.1883 11.7862L20.9481 11.9245C20.8773 11.9606 20.8148 12.0067 20.744 12.0491C20.3825 12.2821 20.0474 12.555 19.7448 12.8652L19.7268 12.8839C19.6199 13.0085 19.5142 13.1231 19.4169 13.2427L19.3989 13.2602C18.4166 14.6158 17.9242 16.2867 18.0095 17.98V18.517H18V29.373C18 34.1069 20.6438 36.4987 25.8713 36.4987H35.3167C40.5562 36.4987 43.2 34.1069 43.2 29.373V18.517H19.949V17.975C19.949 15.6151 20.7007 14.1461 22.3736 13.3935C22.9894 13.1329 23.6387 12.9683 24.3 12.9021V13.9197C24.3 14.478 24.7504 14.9307 25.3074 14.9307C25.8644 14.9307 26.316 14.478 26.316 13.9197ZM24.8378 25.7419C24.2009 25.7419 23.6841 25.2089 23.6841 24.5522C23.6841 23.8953 24.2009 23.3502 24.8378 23.3502H24.8498C25.4747 23.3502 25.9914 23.883 25.9914 24.5397C26.0034 25.1966 25.4867 25.7419 24.8378 25.7419ZM29.4404 24.5522C29.4404 25.2089 29.9691 25.7419 30.606 25.7419C31.2429 25.7419 31.7597 25.209 31.7597 24.5397C31.7597 23.8953 31.2429 23.3625 30.606 23.3502H30.594C29.9571 23.3625 29.4404 23.8953 29.4404 24.5522ZM36.3623 25.7419C35.7253 25.7419 35.2085 25.2089 35.2085 24.5522C35.2085 23.8955 35.7134 23.3625 36.3623 23.3625C36.9991 23.3625 37.5159 23.8955 37.5159 24.5522C37.5159 25.2089 36.9991 25.7419 36.3623 25.7419ZM24.8378 30.8228C24.2008 30.8228 23.6841 30.29 23.6841 29.6332C23.6721 28.9763 24.1888 28.4311 24.8378 28.4311C25.4747 28.4311 25.9914 28.964 25.9914 29.6208C25.9914 30.2777 25.4747 30.8228 24.8378 30.8228ZM30.606 30.8228C29.9691 30.8228 29.4404 30.29 29.4404 29.6332C29.4404 28.9763 29.9571 28.4435 30.594 28.4311H30.606C31.2429 28.4435 31.7477 28.9764 31.7597 29.6208C31.7597 30.29 31.2429 30.8228 30.606 30.8228ZM36.3623 30.8228C35.7253 30.8228 35.2085 30.29 35.1966 29.6332C35.1966 28.9763 35.7134 28.4435 36.3502 28.4435H36.3623C36.9991 28.4435 37.5159 28.9763 37.5159 29.6332C37.5159 30.29 36.9991 30.8228 36.3623 30.8228Z" fill="#CBC9D9"/>
<rect x="20" y="9.49869" width="25" height="26" rx="6" fill="white"/>
<path d="M27.1933 26.1586C27.7101 26.1586 28.2058 26.361 28.5713 26.7212C28.9367 27.0814 29.1421 27.5699 29.1421 28.0793C29.1421 28.5887 28.9367 29.0772 28.5713 29.4374C28.2058 29.7976 27.7101 30 27.1933 30C26.6764 30 26.1807 29.7976 25.8153 29.4374C25.4498 29.0772 25.2445 28.5887 25.2445 28.0793C25.2445 27.5699 25.4498 27.0814 25.8153 26.7212C26.1807 26.361 26.6764 26.1586 27.1933 26.1586ZM39.3704 27.3956C39.6945 27.3956 39.9573 27.7029 39.9573 28.0815C39.9573 28.4602 39.6945 28.7675 39.3704 28.7675H31.7033C31.3793 28.7675 31.1165 28.4602 31.1165 28.0815C31.1165 27.7029 31.3793 27.3956 31.7033 27.3956H39.3704ZM27.1933 20.671C27.4492 20.671 27.7026 20.7207 27.939 20.8172C28.1755 20.9137 28.3903 21.0552 28.5713 21.2335C28.7522 21.4119 28.8958 21.6236 28.9937 21.8567C29.0916 22.0897 29.1421 22.3394 29.1421 22.5917C29.1421 22.8439 29.0916 23.0937 28.9937 23.3267C28.8958 23.5597 28.7522 23.7714 28.5713 23.9498C28.3903 24.1281 28.1755 24.2696 27.939 24.3661C27.7026 24.4627 27.4492 24.5124 27.1933 24.5124C26.6764 24.5124 26.1807 24.31 25.8153 23.9498C25.4498 23.5896 25.2445 23.1011 25.2445 22.5917C25.2445 22.0823 25.4498 21.5937 25.8153 21.2335C26.1807 20.8734 26.6764 20.671 27.1933 20.671ZM39.3704 21.9035C39.6945 21.9035 39.9573 22.2108 39.9573 22.5895C39.9573 22.9681 39.6945 23.2754 39.3704 23.2754H31.7033C31.3793 23.2754 31.1165 22.9681 31.1165 22.5895C31.1165 22.2108 31.3793 21.9035 31.7033 21.9035H39.3704ZM29.7857 15.2086C29.9214 15.3483 29.9972 15.5343 29.9972 15.7277C29.9972 15.9212 29.9214 16.1071 29.7857 16.2469L27.4294 18.6307C27.3651 18.6966 27.288 18.7491 27.2027 18.785C27.1174 18.8209 27.0257 18.8394 26.9329 18.8395C26.8402 18.8396 26.7484 18.8213 26.663 18.7856C26.5776 18.7499 26.5004 18.6976 26.436 18.6318L25.1688 17.3488C25.033 17.209 24.9573 17.0231 24.9573 16.8296C24.9573 16.6362 25.033 16.4502 25.1688 16.3105C25.2328 16.2442 25.3099 16.1915 25.3953 16.1554C25.4806 16.1194 25.5725 16.1008 25.6654 16.1008C25.7583 16.1008 25.8502 16.1194 25.9356 16.1554C26.021 16.1915 26.098 16.2442 26.1621 16.3105L26.9349 17.0941L28.7935 15.2086C28.8575 15.1427 28.9345 15.0902 29.0196 15.0543C29.1048 15.0185 29.1964 15 29.2891 15C29.3817 15 29.4733 15.0185 29.5585 15.0543C29.6436 15.0902 29.7206 15.1427 29.7846 15.2086H29.7857ZM39.3704 16.4148C39.6945 16.4148 39.9573 16.7221 39.9573 17.1007C39.9573 17.4794 39.6945 17.7867 39.3704 17.7867H31.7033C31.3793 17.7867 31.1165 17.4794 31.1165 17.1007C31.1165 16.7221 31.3793 16.4148 31.7033 16.4148H39.3704Z" fill="#FF4555"/>
</svg>
