<svg width="123" height="46" viewBox="0 0 123 46" fill="none" xmlns="http://www.w3.org/2000/svg">
<rect width="122.123" height="45.6533" rx="11.4133" fill="#566FFF"/>
<path fill-rule="evenodd" clip-rule="evenodd" d="M38.9 12.4158V11.3878C39.5594 11.4517 40.2055 11.6181 40.8165 11.8811C41.6055 12.205 42.2587 12.8019 42.6671 13.5706C43.0923 14.469 43.2928 15.4633 43.2519 16.4626V17.0183H45.1902V16.4763C45.2767 14.783 44.7867 13.1109 43.8056 11.754L43.7972 11.7365C43.6975 11.6107 43.5906 11.4911 43.4777 11.3777L43.4669 11.359C43.1608 11.0513 42.8221 10.7771 42.4594 10.5429C42.3969 10.5055 42.3392 10.4594 42.2648 10.4183C42.1904 10.3772 42.105 10.3261 42.0163 10.28C41.9297 10.2339 41.8217 10.1791 41.716 10.133C41.6548 10.1055 41.5827 10.0694 41.5047 10.042C41.3689 9.98594 41.238 9.93111 41.0976 9.88501C41.0447 9.86756 41.0003 9.84887 40.9474 9.83018C40.8946 9.81149 40.8657 9.80153 40.8274 9.78408V9.79405C40.1978 9.59897 39.5525 9.46869 38.9 9.40437V7.99867C38.8962 7.44275 38.4414 6.99625 37.8844 7.00002C37.3275 7.0038 36.879 7.45784 36.884 8.01376V9.31187H28.3258V11.3142H36.884V12.4158C36.884 12.9718 37.3351 13.422 37.892 13.422C38.4489 13.422 38.9 12.9718 38.9 12.4158ZM28.316 12.421V8.01973C28.316 7.4614 27.8644 7.00995 27.3074 7.00995C26.7504 7.00995 26.3 7.4614 26.3 8.01973V9.41066C25.6524 9.47443 25.0118 9.60539 24.388 9.79906V9.79159C24.3436 9.81028 24.3051 9.819 24.2679 9.83769C24.2163 9.85015 24.1658 9.86884 24.1178 9.89251C23.9761 9.93861 23.8344 9.99344 23.7011 10.0495C23.6302 10.0769 23.5594 10.1131 23.4885 10.1405C23.3912 10.1866 23.2856 10.2414 23.1883 10.2875L22.9481 10.4258C22.8773 10.4619 22.8148 10.508 22.744 10.5504C22.3825 10.7834 22.0474 11.0563 21.7448 11.3665L21.7268 11.3852C21.6199 11.5098 21.5142 11.6244 21.4169 11.7441L21.3989 11.7615C20.4166 13.1171 19.9242 14.788 20.0095 16.4813V17.0183H20V27.8743C20 32.6082 22.6438 35 27.8713 35H37.3167C42.5562 35 45.2 32.6082 45.2 27.8743V17.0183H21.949V16.4763C21.949 14.1164 22.7007 12.6474 24.3736 11.8948C24.9894 11.6342 25.6387 11.4697 26.3 11.4034V12.421C26.3 12.9793 26.7504 13.432 27.3074 13.432C27.8644 13.432 28.316 12.9793 28.316 12.421ZM26.8378 24.2432C26.2009 24.2432 25.6841 23.7103 25.6841 23.0535C25.6841 22.3966 26.2009 21.8515 26.8378 21.8515H26.8498C27.4747 21.8515 27.9914 22.3843 27.9914 23.0411C28.0034 23.6979 27.4867 24.2432 26.8378 24.2432ZM31.4404 23.0535C31.4404 23.7103 31.9691 24.2432 32.606 24.2432C33.2429 24.2432 33.7597 23.7103 33.7597 23.0411C33.7597 22.3966 33.2429 21.8638 32.606 21.8515H32.594C31.9571 21.8638 31.4404 22.3966 31.4404 23.0535ZM38.3623 24.2432C37.7253 24.2432 37.2085 23.7103 37.2085 23.0535C37.2085 22.3968 37.7134 21.8638 38.3623 21.8638C38.9991 21.8638 39.5159 22.3968 39.5159 23.0535C39.5159 23.7103 38.9991 24.2432 38.3623 24.2432ZM26.8378 29.3241C26.2008 29.3241 25.6841 28.7913 25.6841 28.1345C25.6721 27.4777 26.1888 26.9324 26.8378 26.9324C27.4747 26.9324 27.9914 27.4653 27.9914 28.1221C27.9914 28.779 27.4747 29.3241 26.8378 29.3241ZM32.606 29.3241C31.9691 29.3241 31.4404 28.7913 31.4404 28.1345C31.4404 27.4777 31.9571 26.9448 32.594 26.9324H32.606C33.2429 26.9448 33.7477 27.4777 33.7597 28.1221C33.7597 28.7913 33.2429 29.3241 32.606 29.3241ZM38.3623 29.3241C37.7253 29.3241 37.2085 28.7913 37.1966 28.1345C37.1966 27.4777 37.7134 26.9448 38.3502 26.9448H38.3623C38.9991 26.9448 39.5159 27.4777 39.5159 28.1345C39.5159 28.7913 38.9991 29.3241 38.3623 29.3241Z" fill="white"/>
<path d="M67.8173 27.5722V29.3466H60.9247V27.5722H67.8173ZM61.5578 16.364V29.3466H59.3197V16.364H61.5578ZM66.9167 21.7853V23.533H60.9247V21.7853H66.9167ZM67.7727 16.364V18.1473H60.9247V16.364H67.7727ZM72.338 27.6436L74.7009 19.6988H76.9301L73.5774 29.3466H72.1864L72.338 27.6436ZM70.5279 19.6988L72.9354 27.6792L73.0513 29.3466H71.6603L68.2898 19.6988H70.5279ZM82.3871 29.525C81.6738 29.525 81.0288 29.4091 80.4522 29.1772C79.8815 28.9395 79.3941 28.6095 78.9898 28.1875C78.5916 27.7654 78.2854 27.2691 78.0714 26.6984C77.8574 26.1277 77.7504 25.5125 77.7504 24.8526V24.496C77.7504 23.741 77.8604 23.0574 78.0803 22.4451C78.3003 21.8329 78.6064 21.3098 78.9988 20.8758C79.3911 20.4359 79.8548 20.1001 80.3898 19.8682C80.9248 19.6364 81.5043 19.5205 82.1285 19.5205C82.8181 19.5205 83.4214 19.6364 83.9386 19.8682C84.4558 20.1001 84.8838 20.427 85.2226 20.8491C85.5674 21.2652 85.823 21.7615 85.9894 22.3381C86.1618 22.9148 86.248 23.5508 86.248 24.2463V25.1647H78.7937V23.6221H84.1258V23.4527C84.1139 23.0663 84.0367 22.7037 83.894 22.3649C83.7573 22.0261 83.5463 21.7526 83.2609 21.5446C82.9756 21.3365 82.5951 21.2325 82.1196 21.2325C81.7629 21.2325 81.4449 21.3098 81.1655 21.4643C80.8921 21.6129 80.6632 21.8299 80.4789 22.1152C80.2946 22.4006 80.152 22.7453 80.0509 23.1496C79.9558 23.5478 79.9083 23.9966 79.9083 24.496V24.8526C79.9083 25.2747 79.9647 25.667 80.0777 26.0296C80.1966 26.3863 80.3689 26.6984 80.5948 26.9659C80.8207 27.2334 81.0942 27.4444 81.4152 27.599C81.7362 27.7476 82.1018 27.8219 82.5119 27.8219C83.0291 27.8219 83.4898 27.7179 83.894 27.5098C84.2982 27.3018 84.6489 27.0075 84.9462 26.6271L86.0786 27.7238C85.8705 28.027 85.6001 28.3183 85.2672 28.5976C84.9343 28.8711 84.5271 29.094 84.0456 29.2664C83.57 29.4388 83.0172 29.525 82.3871 29.525ZM90.0554 21.7586V29.3466H87.9065V19.6988H89.9306L90.0554 21.7586ZM89.672 24.1661L88.9765 24.1571C88.9824 23.4735 89.0776 22.8464 89.2618 22.2757C89.4521 21.7051 89.7136 21.2146 90.0465 20.8045C90.3853 20.3943 90.7896 20.0793 91.2592 19.8593C91.7288 19.6334 92.2519 19.5205 92.8285 19.5205C93.2922 19.5205 93.7112 19.5859 94.0857 19.7166C94.4662 19.8415 94.7902 20.0466 95.0577 20.3319C95.3311 20.6172 95.5392 20.9888 95.6818 21.4465C95.8245 21.8983 95.8958 22.4541 95.8958 23.1139V29.3466H93.738V23.105C93.738 22.6413 93.6696 22.2757 93.5329 22.0082C93.4021 21.7348 93.2089 21.5416 92.9533 21.4286C92.7037 21.3098 92.3916 21.2503 92.0171 21.2503C91.6485 21.2503 91.3186 21.3276 91.0273 21.4821C90.7361 21.6367 90.4894 21.8477 90.2872 22.1152C90.0911 22.3827 89.9395 22.6918 89.8325 23.0426C89.7255 23.3933 89.672 23.7678 89.672 24.1661ZM102.512 19.6988V21.2681H97.0728V19.6988H102.512ZM98.6422 17.3359H100.791V26.6806C100.791 26.9778 100.833 27.2066 100.916 27.3671C101.005 27.5217 101.127 27.6257 101.281 27.6792C101.436 27.7327 101.617 27.7595 101.825 27.7595C101.974 27.7595 102.117 27.7506 102.253 27.7327C102.39 27.7149 102.5 27.6971 102.583 27.6792L102.592 29.3199C102.414 29.3734 102.206 29.421 101.968 29.4626C101.736 29.5042 101.469 29.525 101.166 29.525C100.672 29.525 100.235 29.4388 99.8548 29.2664C99.4744 29.0881 99.1772 28.7998 98.9632 28.4015C98.7492 28.0032 98.6422 27.4741 98.6422 26.8143V17.3359Z" fill="white"/>
</svg>
