<svg width="26" height="28" viewBox="0 0 26 28" fill="none" xmlns="http://www.w3.org/2000/svg">
<path fill-rule="evenodd" clip-rule="evenodd" d="M18.9 5.41584V4.38783C19.5594 4.45174 20.2055 4.61807 20.8165 4.88109C21.6055 5.20505 22.2587 5.80187 22.6671 6.57065C23.0923 7.469 23.2928 8.46331 23.2519 9.46259V10.0183H25.1902V9.47629C25.2767 7.78299 24.7867 6.11087 23.8056 4.75399L23.7972 4.73655C23.6975 4.6107 23.5906 4.49109 23.4777 4.3777L23.4669 4.35901C23.1608 4.05125 22.8221 3.77713 22.4594 3.54289C22.3969 3.50551 22.3392 3.45942 22.2648 3.4183C22.1904 3.37718 22.105 3.32609 22.0163 3.27999C21.9297 3.23389 21.8217 3.17906 21.716 3.13296C21.6548 3.10555 21.5827 3.06942 21.5047 3.04201C21.3689 2.98594 21.238 2.93111 21.0976 2.88501C21.0447 2.86756 21.0003 2.84887 20.9474 2.83018C20.8946 2.81149 20.8657 2.80153 20.8274 2.78408V2.79405C20.1978 2.59897 19.5525 2.46869 18.9 2.40437V0.998669C18.8962 0.442748 18.4414 -0.00374948 17.8844 2.37395e-05C17.3275 0.00379695 16.879 0.457841 16.884 1.01376V2.31187H8.32581V4.31417H16.884V5.41584C16.884 5.97177 17.3351 6.42204 17.892 6.42204C18.4489 6.42204 18.9 5.97177 18.9 5.41584ZM8.31601 5.42097V1.01973C8.31601 0.461398 7.86438 0.00995187 7.30737 0.00995187C6.75037 0.00995187 6.3 0.461398 6.3 1.01973V2.41066C5.65236 2.47443 5.0118 2.60539 4.38801 2.79906V2.79159C4.34357 2.81028 4.30514 2.819 4.26791 2.83769C4.21628 2.85015 4.16584 2.86884 4.11781 2.89251C3.9761 2.93861 3.83439 2.99344 3.70108 3.04951C3.63023 3.07692 3.55937 3.11305 3.48852 3.14046C3.39125 3.18657 3.28557 3.24139 3.18829 3.2875L2.94811 3.4258C2.87725 3.46193 2.81481 3.50804 2.74396 3.5504C2.38248 3.78339 2.04743 4.05626 1.74479 4.36652L1.72679 4.3852C1.6199 4.5098 1.51423 4.62444 1.41694 4.74405L1.39893 4.7615C0.416586 6.11713 -0.07579 7.78801 0.00947494 9.48131V10.0183H7.54198e-07V20.8743C7.54198e-07 25.6082 2.64378 28 7.87125 28H17.3167C22.5562 28 25.2 25.6082 25.2 20.8743V10.0183H1.94896V9.47632C1.94896 7.11641 2.70073 5.64739 4.3736 4.89482C4.98943 4.63419 5.63874 4.46965 6.3 4.40345V5.42097C6.3 5.97929 6.75037 6.43199 7.30737 6.43199C7.86438 6.43199 8.31601 5.97929 8.31601 5.42097ZM6.83777 17.2432C6.20086 17.2432 5.68413 16.7103 5.68413 16.0535C5.68413 15.3966 6.20086 14.8515 6.83777 14.8515H6.84979C7.47468 14.8515 7.99143 15.3843 7.99143 16.0411C8.00344 16.6979 7.48669 17.2432 6.83777 17.2432ZM11.4404 16.0535C11.4404 16.7103 11.9691 17.2432 12.606 17.2432C13.2429 17.2432 13.7597 16.7103 13.7597 16.0411C13.7597 15.3966 13.2429 14.8638 12.606 14.8515H12.594C11.9571 14.8638 11.4404 15.3966 11.4404 16.0535ZM18.3623 17.2432C17.7253 17.2432 17.2085 16.7103 17.2085 16.0535C17.2085 15.3968 17.7134 14.8638 18.3623 14.8638C18.9991 14.8638 19.5159 15.3968 19.5159 16.0535C19.5159 16.7103 18.9991 17.2432 18.3623 17.2432ZM6.83777 22.3241C6.20085 22.3241 5.68412 21.7913 5.68412 21.1345C5.6721 20.4777 6.18884 19.9324 6.83777 19.9324C7.47467 19.9324 7.99142 20.4653 7.99142 21.1221C7.99142 21.779 7.47467 22.3241 6.83777 22.3241ZM12.606 22.3241C11.9691 22.3241 11.4404 21.7913 11.4404 21.1345C11.4404 20.4777 11.9571 19.9448 12.594 19.9324H12.606C13.2429 19.9448 13.7477 20.4777 13.7597 21.1221C13.7597 21.7913 13.2429 22.3241 12.606 22.3241ZM18.3623 22.3241C17.7253 22.3241 17.2085 21.7913 17.1966 21.1345C17.1966 20.4777 17.7134 19.9448 18.3502 19.9448H18.3623C18.9991 19.9448 19.5159 20.4777 19.5159 21.1345C19.5159 21.7913 18.9991 22.3241 18.3623 22.3241Z" fill="white"/>
</svg>
