<svg width="123" height="46" viewBox="0 0 123 46" fill="none" xmlns="http://www.w3.org/2000/svg">
<rect width="122.123" height="45.6533" rx="11.4133" fill="#7C37FA"/>
<path fill-rule="evenodd" clip-rule="evenodd" d="M43.0594 10.7246C42.8519 10.5171 42.5406 10.4133 42.1256 10.4133C41.7105 10.5171 30.6085 12.3847 26.0431 16.9501C22.8267 20.1665 22.6191 23.6943 23.1379 26.1845L26.977 23.9018C27.4957 23.5905 28.0145 24.3168 27.5995 24.7319L23.7605 28.5709V28.5709L20.8553 31.4761C20.4402 31.8911 20.4402 32.5137 20.8553 32.9287C21.0628 33.1362 21.2703 33.24 21.5816 33.24C21.8928 33.24 22.1004 33.1362 22.3079 32.9287L25.2131 30.0235C26.0431 30.4385 27.5995 30.9573 29.5709 30.9573C31.8536 30.9573 33.9287 30.231 35.7964 28.7784C36.1076 28.5709 36.3151 28.0521 36.1076 27.6371L34.655 22.4492L38.3903 23.9018C38.9091 24.1093 39.5316 23.9018 39.7391 23.383C41.9181 18.5064 43.2669 11.9697 43.3707 11.7622C43.3707 11.3471 43.2669 10.9321 43.0594 10.7246Z" fill="white"/>
<path d="M64.8975 20.7853V22.5597H58.0049V20.7853H64.8975ZM58.5578 15.364V28.3466H56.3197V15.364H58.5578ZM66.6184 15.364V28.3466H64.3893V15.364H66.6184ZM68.6603 23.6297V23.4246C68.6603 22.7291 68.7614 22.0842 68.9635 21.4897C69.1656 20.8893 69.4569 20.3692 69.8373 19.9293C70.2237 19.4835 70.6933 19.1387 71.2462 18.895C71.8049 18.6453 72.4351 18.5205 73.1365 18.5205C73.8439 18.5205 74.474 18.6453 75.0268 18.895C75.5856 19.1387 76.0582 19.4835 76.4446 19.9293C76.831 20.3692 77.1252 20.8893 77.3273 21.4897C77.5294 22.0842 77.6305 22.7291 77.6305 23.4246V23.6297C77.6305 24.3252 77.5294 24.9702 77.3273 25.5646C77.1252 26.1591 76.831 26.6792 76.4446 27.1251C76.0582 27.565 75.5886 27.9097 75.0357 28.1594C74.4829 28.4031 73.8558 28.525 73.1543 28.525C72.4469 28.525 71.8139 28.4031 71.2551 28.1594C70.7022 27.9097 70.2326 27.565 69.8462 27.1251C69.4599 26.6792 69.1656 26.1591 68.9635 25.5646C68.7614 24.9702 68.6603 24.3252 68.6603 23.6297ZM70.8092 23.4246V23.6297C70.8092 24.0637 70.8538 24.4738 70.943 24.8602C71.0322 25.2466 71.1719 25.5855 71.3621 25.8767C71.5523 26.168 71.796 26.3969 72.0932 26.5633C72.3905 26.7298 72.7442 26.813 73.1543 26.813C73.5526 26.813 73.8974 26.7298 74.1887 26.5633C74.4859 26.3969 74.7296 26.168 74.9198 25.8767C75.1101 25.5855 75.2497 25.2466 75.3389 24.8602C75.434 24.4738 75.4816 24.0637 75.4816 23.6297V23.4246C75.4816 22.9966 75.434 22.5924 75.3389 22.212C75.2497 21.8256 75.1071 21.4838 74.9109 21.1866C74.7207 20.8893 74.477 20.6575 74.1797 20.4911C73.8885 20.3187 73.5407 20.2325 73.1365 20.2325C72.7323 20.2325 72.3816 20.3187 72.0843 20.4911C71.7931 20.6575 71.5523 20.8893 71.3621 21.1866C71.1719 21.4838 71.0322 21.8256 70.943 22.212C70.8538 22.5924 70.8092 22.9966 70.8092 23.4246ZM81.5806 20.6605V28.3466H79.4317V18.6988H81.4558L81.5806 20.6605ZM81.2328 23.1661L80.5017 23.1571C80.5017 22.4914 80.5849 21.8761 80.7513 21.3114C80.9178 20.7467 81.1615 20.2563 81.4825 19.8401C81.8035 19.4181 82.2018 19.0941 82.6773 18.8682C83.1588 18.6364 83.7146 18.5205 84.3448 18.5205C84.7846 18.5205 85.1859 18.5859 85.5485 18.7166C85.9171 18.8415 86.2351 19.0406 86.5026 19.3141C86.776 19.5875 86.9841 19.9382 87.1268 20.3662C87.2754 20.7942 87.3497 21.3114 87.3497 21.9177V28.3466H85.2008V22.105C85.2008 21.6354 85.1294 21.2668 84.9868 20.9993C84.85 20.7318 84.6509 20.5416 84.3893 20.4286C84.1337 20.3098 83.8276 20.2503 83.4709 20.2503C83.0667 20.2503 82.7219 20.3276 82.4366 20.4821C82.1572 20.6367 81.9283 20.8477 81.75 21.1152C81.5717 21.3827 81.4409 21.6918 81.3577 22.0426C81.2744 22.3933 81.2328 22.7678 81.2328 23.1661ZM87.2159 22.5954L86.2083 22.8183C86.2083 22.2358 86.2886 21.6859 86.4491 21.1687C86.6155 20.6456 86.8563 20.1879 87.1713 19.7956C87.4923 19.3973 87.8876 19.0852 88.3573 18.8593C88.8269 18.6334 89.3648 18.5205 89.9712 18.5205C90.4646 18.5205 90.9044 18.5888 91.2908 18.7256C91.6832 18.8563 92.0161 19.0644 92.2895 19.3497C92.5629 19.6351 92.771 20.0066 92.9137 20.4643C93.0563 20.9161 93.1277 21.463 93.1277 22.105V28.3466H90.9698V22.0961C90.9698 21.6086 90.8985 21.2311 90.7558 20.9636C90.6191 20.6961 90.4229 20.5119 90.1673 20.4108C89.9117 20.3038 89.6056 20.2503 89.2489 20.2503C88.916 20.2503 88.6218 20.3127 88.3662 20.4376C88.1165 20.5565 87.9055 20.7259 87.7331 20.9458C87.5607 21.1598 87.4299 21.4065 87.3408 21.6859C87.2575 21.9653 87.2159 22.2685 87.2159 22.5954ZM99.5923 28.525C98.8789 28.525 98.2339 28.4091 97.6573 28.1772C97.0867 27.9395 96.5992 27.6095 96.195 27.1875C95.7967 26.7654 95.4906 26.2691 95.2766 25.6984C95.0626 25.1277 94.9556 24.5125 94.9556 23.8526V23.496C94.9556 22.741 95.0656 22.0574 95.2855 21.4451C95.5054 20.8329 95.8116 20.3098 96.2039 19.8758C96.5963 19.4359 97.0599 19.1001 97.5949 18.8682C98.1299 18.6364 98.7095 18.5205 99.3337 18.5205C100.023 18.5205 100.627 18.6364 101.144 18.8682C101.661 19.1001 102.089 19.427 102.428 19.8491C102.773 20.2652 103.028 20.7615 103.195 21.3381C103.367 21.9148 103.453 22.5508 103.453 23.2463V24.1647H95.9988V22.6221H101.331V22.4527C101.319 22.0663 101.242 21.7037 101.099 21.3649C100.962 21.0261 100.751 20.7526 100.466 20.5446C100.181 20.3365 99.8003 20.2325 99.3248 20.2325C98.9681 20.2325 98.6501 20.3098 98.3707 20.4643C98.0972 20.6129 97.8684 20.8299 97.6841 21.1152C97.4998 21.4006 97.3571 21.7453 97.2561 22.1496C97.161 22.5478 97.1134 22.9966 97.1134 23.496V23.8526C97.1134 24.2747 97.1699 24.667 97.2828 25.0296C97.4017 25.3863 97.5741 25.6984 97.8 25.9659C98.0259 26.2334 98.2993 26.4444 98.6203 26.599C98.9413 26.7476 99.3069 26.8219 99.7171 26.8219C100.234 26.8219 100.695 26.7179 101.099 26.5098C101.503 26.3018 101.854 26.0075 102.151 25.6271L103.284 26.7238C103.076 27.027 102.805 27.3183 102.472 27.5976C102.139 27.8711 101.732 28.094 101.251 28.2664C100.775 28.4388 100.222 28.525 99.5923 28.525Z" fill="white"/>
</svg>
