<svg width="24" height="24" viewBox="0 0 24 24" fill="none" xmlns="http://www.w3.org/2000/svg">
<path fill-rule="evenodd" clip-rule="evenodd" d="M23.0594 0.724603C22.8519 0.517088 22.5406 0.41333 22.1256 0.41333C21.7105 0.517088 10.6085 2.38472 6.04314 6.95006C2.82666 10.1665 2.61914 13.6943 3.13793 16.1845L6.97696 13.9018C7.49575 13.5905 8.01454 14.3168 7.59951 14.7319L3.76048 18.5709L0.855264 21.4761C0.440234 21.8911 0.440234 22.5137 0.855264 22.9287C1.06278 23.1362 1.27029 23.24 1.58157 23.24C1.89284 23.24 2.10035 23.1362 2.30787 22.9287L5.21308 20.0235C6.04314 20.4385 7.59951 20.9573 9.5709 20.9573C11.8536 20.9573 13.9287 20.231 15.7964 18.7784C16.1076 18.5709 16.3151 18.0521 16.1076 17.6371L14.655 12.4492L18.3903 13.9018C18.9091 14.1093 19.5316 13.9018 19.7391 13.383C21.9181 8.50642 23.2669 1.96969 23.3707 1.76218C23.3707 1.34715 23.2669 0.932118 23.0594 0.724603Z" fill="white"/>
</svg>
